<svg width="225" height="82" viewBox="0 0 225 82" fill="none" xmlns="http://www.w3.org/2000/svg">
<rect y="0.825073" width="224.091" height="80.6084" rx="40.3042" fill="url(#paint0_linear_3_86)"/>
<path d="M72.401 50.8137V32.0539H78.9596C80.2664 32.0539 81.3442 32.2798 82.193 32.7317C83.0419 33.1775 83.6739 33.779 84.0892 34.5363C84.5044 35.2874 84.7121 36.121 84.7121 37.037C84.7121 37.843 84.5686 38.5087 84.2815 39.0338C84.0006 39.559 83.6281 39.9743 83.164 40.2796C82.706 40.5849 82.2083 40.8109 81.6709 40.9575V41.1407C82.245 41.1773 82.822 41.3788 83.4022 41.7452C83.9823 42.1116 84.4678 42.6368 84.8586 43.3207C85.2494 44.0047 85.4449 44.8413 85.4449 45.8306C85.4449 46.771 85.2311 47.6168 84.8037 48.3679C84.3762 49.1191 83.7014 49.7145 82.7793 50.1541C81.8572 50.5938 80.6572 50.8137 79.1794 50.8137H72.401ZM74.6727 48.7985H79.1794C80.6633 48.7985 81.7167 48.5114 82.3396 47.9374C82.9686 47.3573 83.2831 46.655 83.2831 45.8306C83.2831 45.1955 83.1213 44.6093 82.7976 44.0719C82.474 43.5284 82.0129 43.0948 81.4144 42.7711C80.816 42.4414 80.1076 42.2765 79.2893 42.2765H74.6727V48.7985ZM74.6727 40.2979H78.8863C79.5702 40.2979 80.187 40.1636 80.7366 39.8949C81.2923 39.6262 81.732 39.2476 82.0556 38.759C82.3854 38.2705 82.5503 37.6965 82.5503 37.037C82.5503 36.2126 82.2633 35.5133 81.6892 34.9393C81.1152 34.3592 80.2053 34.0691 78.9596 34.0691H74.6727V40.2979ZM94.6003 51.1068C93.3301 51.1068 92.2157 50.8045 91.2569 50.1999C90.3043 49.5954 89.5592 48.7496 89.0219 47.6626C88.4906 46.5756 88.2249 45.3054 88.2249 43.852C88.2249 42.3864 88.4906 41.1071 89.0219 40.014C89.5592 38.9209 90.3043 38.072 91.2569 37.4675C92.2157 36.8629 93.3301 36.5606 94.6003 36.5606C95.8705 36.5606 96.9819 36.8629 97.9346 37.4675C98.8933 38.072 99.6383 38.9209 100.17 40.014C100.707 41.1071 100.976 42.3864 100.976 43.852C100.976 45.3054 100.707 46.5756 100.17 47.6626C99.6383 48.7496 98.8933 49.5954 97.9346 50.1999C96.9819 50.8045 95.8705 51.1068 94.6003 51.1068ZM94.6003 49.1649C95.5652 49.1649 96.3591 48.9175 96.9819 48.4229C97.6048 47.9282 98.0659 47.2779 98.3651 46.4718C98.6643 45.6657 98.8139 44.7925 98.8139 43.852C98.8139 42.9116 98.6643 42.0353 98.3651 41.2231C98.0659 40.4109 97.6048 39.7544 96.9819 39.2537C96.3591 38.7529 95.5652 38.5026 94.6003 38.5026C93.6355 38.5026 92.8416 38.7529 92.2187 39.2537C91.5958 39.7544 91.1348 40.4109 90.8355 41.2231C90.5363 42.0353 90.3867 42.9116 90.3867 43.852C90.3867 44.7925 90.5363 45.6657 90.8355 46.4718C91.1348 47.2779 91.5958 47.9282 92.2187 48.4229C92.8416 48.9175 93.6355 49.1649 94.6003 49.1649ZM109.991 51.1068C108.721 51.1068 107.607 50.8045 106.648 50.1999C105.695 49.5954 104.95 48.7496 104.413 47.6626C103.882 46.5756 103.616 45.3054 103.616 43.852C103.616 42.3864 103.882 41.1071 104.413 40.014C104.95 38.9209 105.695 38.072 106.648 37.4675C107.607 36.8629 108.721 36.5606 109.991 36.5606C111.262 36.5606 112.373 36.8629 113.326 37.4675C114.284 38.072 115.03 38.9209 115.561 40.014C116.098 41.1071 116.367 42.3864 116.367 43.852C116.367 45.3054 116.098 46.5756 115.561 47.6626C115.03 48.7496 114.284 49.5954 113.326 50.1999C112.373 50.8045 111.262 51.1068 109.991 51.1068ZM109.991 49.1649C110.956 49.1649 111.75 48.9175 112.373 48.4229C112.996 47.9282 113.457 47.2779 113.756 46.4718C114.055 45.6657 114.205 44.7925 114.205 43.852C114.205 42.9116 114.055 42.0353 113.756 41.2231C113.457 40.4109 112.996 39.7544 112.373 39.2537C111.75 38.7529 110.956 38.5026 109.991 38.5026C109.027 38.5026 108.233 38.7529 107.61 39.2537C106.987 39.7544 106.526 40.4109 106.227 41.2231C105.927 42.0353 105.778 42.9116 105.778 43.852C105.778 44.7925 105.927 45.6657 106.227 46.4718C106.526 47.2779 106.987 47.9282 107.61 48.4229C108.233 48.9175 109.027 49.1649 109.991 49.1649ZM125.786 36.7438V38.5758H118.494V36.7438H125.786ZM120.619 33.3729H122.781V46.7832C122.781 47.3939 122.87 47.8519 123.047 48.1572C123.23 48.4565 123.462 48.658 123.743 48.7618C124.03 48.8595 124.332 48.9084 124.65 48.9084C124.888 48.9084 125.083 48.8962 125.236 48.8717C125.389 48.8412 125.511 48.8168 125.602 48.7985L126.042 50.7404C125.896 50.7953 125.691 50.8503 125.428 50.9053C125.166 50.9663 124.833 50.9969 124.43 50.9969C123.819 50.9969 123.221 50.8656 122.635 50.603C122.054 50.3404 121.572 49.9404 121.187 49.403C120.809 48.8656 120.619 48.1878 120.619 47.3695V33.3729ZM138.752 39.8949L136.81 40.4445C136.688 40.1208 136.508 39.8063 136.269 39.501C136.037 39.1896 135.72 38.9331 135.317 38.7316C134.914 38.53 134.398 38.4293 133.769 38.4293C132.908 38.4293 132.19 38.6278 131.616 39.0247C131.048 39.4155 130.764 39.9132 130.764 40.5178C130.764 41.0552 130.96 41.4796 131.35 41.791C131.741 42.1025 132.352 42.362 133.182 42.5696L135.271 43.0826C136.529 43.3879 137.466 43.8551 138.083 44.4841C138.7 45.107 139.008 45.91 139.008 46.8932C139.008 47.6992 138.776 48.4198 138.312 49.0549C137.854 49.69 137.213 50.1908 136.388 50.5572C135.564 50.9236 134.605 51.1068 133.512 51.1068C132.077 51.1068 130.889 50.7953 129.949 50.1725C129.008 49.5496 128.413 48.6397 128.163 47.4428L130.215 46.9298C130.41 47.687 130.779 48.255 131.323 48.6336C131.873 49.0122 132.59 49.2015 133.476 49.2015C134.483 49.2015 135.283 48.9878 135.875 48.5603C136.474 48.1267 136.773 47.6076 136.773 47.0031C136.773 46.5145 136.602 46.1054 136.26 45.7756C135.918 45.4398 135.393 45.1894 134.685 45.0245L132.34 44.4749C131.051 44.1696 130.105 43.6963 129.5 43.0551C128.902 42.4078 128.602 41.5987 128.602 40.6277C128.602 39.8338 128.825 39.1316 129.271 38.5209C129.723 37.9102 130.337 37.4308 131.112 37.0828C131.894 36.7347 132.779 36.5606 133.769 36.5606C135.161 36.5606 136.254 36.866 137.048 37.4766C137.848 38.0873 138.416 38.8934 138.752 39.8949ZM148.381 36.7438V38.5758H141.09V36.7438H148.381ZM143.215 33.3729H145.377V46.7832C145.377 47.3939 145.465 47.8519 145.642 48.1572C145.826 48.4565 146.058 48.658 146.339 48.7618C146.626 48.8595 146.928 48.9084 147.245 48.9084C147.484 48.9084 147.679 48.8962 147.832 48.8717C147.984 48.8412 148.106 48.8168 148.198 48.7985L148.638 50.7404C148.491 50.7953 148.287 50.8503 148.024 50.9053C147.761 50.9663 147.429 50.9969 147.026 50.9969C146.415 50.9969 145.816 50.8656 145.23 50.603C144.65 50.3404 144.168 49.9404 143.783 49.403C143.404 48.8656 143.215 48.1878 143.215 47.3695V33.3729ZM151.633 50.8137V36.7438H153.722V38.869H153.868C154.125 38.1728 154.589 37.6079 155.26 37.1744C155.932 36.7408 156.689 36.524 157.532 36.524C157.691 36.524 157.889 36.527 158.128 36.5332C158.366 36.5393 158.546 36.5484 158.668 36.5606V38.759C158.595 38.7407 158.427 38.7132 158.164 38.6766C157.908 38.6339 157.636 38.6125 157.349 38.6125C156.665 38.6125 156.054 38.756 155.517 39.043C154.986 39.3239 154.564 39.7147 154.253 40.2155C153.947 40.7101 153.795 41.275 153.795 41.9101V50.8137H151.633ZM165.371 51.1434C164.479 51.1434 163.67 50.9755 162.943 50.6396C162.217 50.2976 161.64 49.8061 161.212 49.1649C160.785 48.5175 160.571 47.7359 160.571 46.8199C160.571 46.0138 160.73 45.3604 161.047 44.8596C161.365 44.3528 161.789 43.9558 162.321 43.6688C162.852 43.3818 163.438 43.1681 164.079 43.0276C164.727 42.8811 165.377 42.765 166.03 42.6795C166.885 42.5696 167.578 42.4872 168.11 42.4322C168.647 42.3712 169.038 42.2704 169.282 42.1299C169.533 41.9895 169.658 41.7452 169.658 41.3971V41.3239C169.658 40.4201 169.41 39.7178 168.916 39.217C168.427 38.7163 167.685 38.4659 166.69 38.4659C165.658 38.4659 164.849 38.6919 164.262 39.1438C163.676 39.5957 163.264 40.0781 163.026 40.5911L160.974 39.8582C161.34 39.0033 161.829 38.3377 162.44 37.8614C163.056 37.3789 163.728 37.0431 164.455 36.8538C165.188 36.6583 165.908 36.5606 166.617 36.5606C167.068 36.5606 167.588 36.6156 168.174 36.7255C168.766 36.8293 169.337 37.0461 169.887 37.3759C170.442 37.7056 170.903 38.2033 171.27 38.869C171.636 39.5346 171.819 40.4262 171.819 41.5437V50.8137H169.658V48.9084H169.548C169.401 49.2137 169.157 49.5404 168.815 49.8885C168.473 50.2366 168.018 50.5328 167.45 50.777C166.882 51.0213 166.189 51.1434 165.371 51.1434ZM165.701 49.2015C166.556 49.2015 167.276 49.0336 167.862 48.6977C168.455 48.3618 168.9 47.9282 169.2 47.397C169.505 46.8657 169.658 46.3069 169.658 45.7207V43.7421C169.566 43.852 169.365 43.9528 169.053 44.0444C168.748 44.1299 168.394 44.2062 167.991 44.2734C167.594 44.3345 167.206 44.3894 166.827 44.4383C166.455 44.481 166.152 44.5177 165.92 44.5482C165.359 44.6215 164.833 44.7406 164.345 44.9054C163.862 45.0642 163.472 45.3054 163.172 45.6291C162.879 45.9466 162.733 46.3802 162.733 46.9298C162.733 47.6809 163.011 48.2488 163.566 48.6336C164.128 49.0122 164.84 49.2015 165.701 49.2015ZM175.765 56.0898V36.7438H177.854V38.9789H178.11C178.269 38.7346 178.489 38.4232 178.77 38.0446C179.057 37.6598 179.466 37.3179 179.997 37.0186C180.534 36.7133 181.261 36.5606 182.177 36.5606C183.362 36.5606 184.406 36.8568 185.31 37.4492C186.214 38.0415 186.919 38.8812 187.426 39.9682C187.933 41.0552 188.186 42.3376 188.186 43.8154C188.186 45.3054 187.933 46.597 187.426 47.6901C186.919 48.7771 186.217 49.6198 185.319 50.2183C184.421 50.8106 183.386 51.1068 182.214 51.1068C181.31 51.1068 180.586 50.9572 180.043 50.6579C179.499 50.3526 179.081 50.0076 178.788 49.6229C178.495 49.232 178.269 48.9084 178.11 48.6519H177.927V56.0898H175.765ZM177.89 43.7787C177.89 44.8413 178.046 45.7787 178.357 46.5909C178.669 47.397 179.124 48.029 179.722 48.487C180.321 48.9389 181.054 49.1649 181.921 49.1649C182.825 49.1649 183.579 48.9267 184.183 48.4504C184.794 47.9679 185.252 47.3206 185.557 46.5084C185.869 45.6901 186.024 44.7802 186.024 43.7787C186.024 42.7895 185.872 41.8979 185.566 41.104C185.267 40.304 184.812 39.672 184.202 39.2079C183.597 38.7377 182.837 38.5026 181.921 38.5026C181.041 38.5026 180.302 38.7255 179.704 39.1712C179.106 39.6109 178.654 40.2277 178.348 41.0216C178.043 41.8093 177.89 42.7284 177.89 43.7787Z" fill="#F4F8FF"/>
<rect x="24.1825" y="21.7833" width="37.8859" height="39.4981" rx="2.41825" fill="#FFFDFE"/>
<path d="M33.1139 27.4441H45.031C47.8685 27.4441 50.0352 28.0632 51.5313 29.3013C53.0532 30.5395 53.8141 32.3322 53.8141 34.6795C53.8141 35.9692 53.4272 37.13 52.6534 38.1618C51.8795 39.1936 50.7575 39.9029 49.2872 40.2898C50.8864 40.5994 52.1762 41.3474 53.1564 42.534C54.1366 43.6947 54.6267 45.2166 54.6267 47.0996C54.6267 49.3954 53.8141 51.2139 52.1891 52.5552C50.5898 53.8707 48.3972 54.5285 45.6114 54.5285H33.1139V27.4441ZM44.915 38.3552C45.9467 38.3552 46.7722 38.0586 47.3912 37.4653C48.0361 36.8463 48.3586 36.0337 48.3586 35.0277C48.3586 34.0217 48.0361 33.2221 47.3912 32.6288C46.7722 32.0097 45.9467 31.7002 44.915 31.7002H38.5695V38.3552H44.915ZM44.4507 50.2724C46.0499 50.2724 47.2365 49.9628 48.0103 49.3438C48.7842 48.6989 49.1711 47.7316 49.1711 46.4419C49.1711 45.1521 48.7842 44.1977 48.0103 43.5787C47.2365 42.9338 46.0499 42.6114 44.4507 42.6114H38.5695V50.2724H44.4507Z" fill="url(#paint1_linear_3_86)"/>
<defs>
<linearGradient id="paint0_linear_3_86" x1="112.046" y1="0.825073" x2="112.046" y2="81.4334" gradientUnits="userSpaceOnUse">
<stop stop-color="#9411F5"/>
<stop offset="1" stop-color="#6E10FA"/>
</linearGradient>
<linearGradient id="paint1_linear_3_86" x1="48.768" y1="14.5285" x2="48.768" y2="45.9658" gradientUnits="userSpaceOnUse">
<stop offset="0.33" stop-color="#9411F5"/>
<stop offset="1" stop-color="#6E10FA"/>
</linearGradient>
</defs>
</svg>
