<svg width="225" height="82" viewBox="0 0 225 82" fill="none" xmlns="http://www.w3.org/2000/svg">
<rect x="0.0913086" y="0.433472" width="224.091" height="80.6084" rx="40.3042" fill="#066DA5"/>
<path d="M96.0608 50H90.2717V31.2402H96.3173C98.1371 31.2402 99.6943 31.6158 100.989 32.3669C102.284 33.1119 103.276 34.1837 103.966 35.5821C104.656 36.9744 105.001 38.6415 105.001 40.5835C105.001 42.5376 104.653 44.22 103.957 45.6307C103.261 47.0352 102.247 48.1161 100.916 48.8733C99.5844 49.6244 97.9661 50 96.0608 50ZM92.5434 47.9848H95.9143C97.4654 47.9848 98.7508 47.6856 99.7707 47.0871C100.79 46.4887 101.551 45.6368 102.052 44.5315C102.552 43.4261 102.803 42.1102 102.803 40.5835C102.803 39.069 102.555 37.7652 102.061 36.6721C101.566 35.5729 100.827 34.7302 99.8439 34.144C98.8608 33.5516 97.6364 33.2554 96.1708 33.2554H92.5434V47.9848ZM114.234 50.2931C112.964 50.2931 111.85 49.9908 110.891 49.3863C109.938 48.7817 109.193 47.9359 108.656 46.8489C108.125 45.762 107.859 44.4918 107.859 43.0384C107.859 41.5728 108.125 40.2934 108.656 39.2003C109.193 38.1072 109.938 37.2584 110.891 36.6538C111.85 36.0493 112.964 35.747 114.234 35.747C115.505 35.747 116.616 36.0493 117.569 36.6538C118.527 37.2584 119.272 38.1072 119.804 39.2003C120.341 40.2934 120.61 41.5728 120.61 43.0384C120.61 44.4918 120.341 45.762 119.804 46.8489C119.272 47.9359 118.527 48.7817 117.569 49.3863C116.616 49.9908 115.505 50.2931 114.234 50.2931ZM114.234 48.3512C115.199 48.3512 115.993 48.1039 116.616 47.6092C117.239 47.1146 117.7 46.4642 117.999 45.6581C118.298 44.8521 118.448 43.9788 118.448 43.0384C118.448 42.0979 118.298 41.2216 117.999 40.4094C117.7 39.5972 117.239 38.9408 116.616 38.44C115.993 37.9393 115.199 37.6889 114.234 37.6889C113.27 37.6889 112.476 37.9393 111.853 38.44C111.23 38.9408 110.769 39.5972 110.47 40.4094C110.17 41.2216 110.021 42.0979 110.021 43.0384C110.021 43.9788 110.17 44.8521 110.47 45.6581C110.769 46.4642 111.23 47.1146 111.853 47.6092C112.476 48.1039 113.27 48.3512 114.234 48.3512ZM129.626 50.2931C128.306 50.2931 127.171 49.9817 126.218 49.3588C125.265 48.7359 124.533 47.8779 124.02 46.7848C123.507 45.6917 123.25 44.4429 123.25 43.0384C123.25 41.6094 123.513 40.3484 124.038 39.2553C124.569 38.1561 125.308 37.2981 126.255 36.6813C127.207 36.0584 128.319 35.747 129.589 35.747C130.578 35.747 131.47 35.9302 132.264 36.2966C133.057 36.663 133.708 37.1759 134.215 37.8355C134.722 38.495 135.036 39.2644 135.158 40.1438H132.996C132.832 39.5026 132.465 38.9347 131.897 38.44C131.335 37.9393 130.578 37.6889 129.626 37.6889C128.783 37.6889 128.044 37.9087 127.409 38.3484C126.78 38.782 126.288 39.3957 125.934 40.1896C125.586 40.9774 125.412 41.9025 125.412 42.9651C125.412 44.0521 125.583 44.9986 125.925 45.8047C126.273 46.6108 126.761 47.2367 127.39 47.6825C128.026 48.1283 128.771 48.3512 129.626 48.3512C130.187 48.3512 130.697 48.2535 131.155 48.0581C131.613 47.8627 132.001 47.5817 132.319 47.2153C132.636 46.8489 132.862 46.4093 132.996 45.8963H135.158C135.036 46.7268 134.734 47.4749 134.251 48.1405C133.775 48.8 133.143 49.3252 132.355 49.716C131.574 50.1008 130.664 50.2931 129.626 50.2931ZM140.334 44.8704L140.297 42.1956H140.737L146.892 35.9302H149.567L143.008 42.562H142.825L140.334 44.8704ZM138.318 50V31.2402H140.48V50H138.318ZM147.259 50L141.763 43.0384L143.301 41.5361L150.007 50H147.259ZM157.669 50.2931C156.313 50.2931 155.144 49.9939 154.161 49.3954C153.184 48.7909 152.429 47.9482 151.898 46.8673C151.373 45.7803 151.11 44.5162 151.11 43.075C151.11 41.6338 151.373 40.3636 151.898 39.2644C152.429 38.1591 153.168 37.2981 154.115 36.6813C155.068 36.0584 156.179 35.747 157.449 35.747C158.182 35.747 158.906 35.8691 159.62 36.1134C160.335 36.3576 160.985 36.7546 161.571 37.3042C162.157 37.8477 162.625 38.5683 162.973 39.466C163.321 40.3636 163.495 41.4689 163.495 42.7819V43.6979H152.649V41.8292H161.296C161.296 41.0354 161.138 40.327 160.82 39.7041C160.509 39.0812 160.063 38.5896 159.483 38.2293C158.909 37.8691 158.231 37.6889 157.449 37.6889C156.588 37.6889 155.843 37.9026 155.214 38.3301C154.591 38.7515 154.112 39.3011 153.776 39.9789C153.44 40.6568 153.272 41.3835 153.272 42.159V43.4048C153.272 44.4673 153.455 45.3681 153.822 46.107C154.194 46.8398 154.71 47.3985 155.37 47.7833C156.029 48.1619 156.796 48.3512 157.669 48.3512C158.237 48.3512 158.75 48.2718 159.208 48.113C159.672 47.9482 160.072 47.7039 160.408 47.3802C160.744 47.0505 161.003 46.6413 161.186 46.1528L163.275 46.739C163.055 47.4474 162.686 48.0703 162.167 48.6077C161.647 49.139 161.006 49.5542 160.243 49.8534C159.48 50.1466 158.622 50.2931 157.669 50.2931ZM166.783 50V35.9302H168.872V38.0553H169.018C169.275 37.3591 169.739 36.7943 170.411 36.3607C171.082 35.9271 171.84 35.7103 172.682 35.7103C172.841 35.7103 173.04 35.7134 173.278 35.7195C173.516 35.7256 173.696 35.7348 173.818 35.747V37.9454C173.745 37.9271 173.577 37.8996 173.314 37.8629C173.058 37.8202 172.786 37.7988 172.499 37.7988C171.815 37.7988 171.204 37.9423 170.667 38.2293C170.136 38.5103 169.714 38.9011 169.403 39.4018C169.098 39.8965 168.945 40.4613 168.945 41.0964V50H166.783Z" fill="white"/>
<g clip-path="url(#clip0_6_43)">
<path d="M56.6256 37.8498H61.4877ZM50.8375 37.8498H55.6995ZM45.1651 37.8498H50.0271ZM39.4926 37.8498H44.239ZM33.7045 37.8498H38.5665ZM39.4926 32.5246H44.239ZM45.1651 32.5246H50.0271ZM50.8375 32.5246H55.6995ZM50.8375 27.1995H55.6995Z" fill="black"/>
<path d="M56.6256 37.8498H61.4877M50.8375 37.8498H55.6995M45.1651 37.8498H50.0271M39.4926 37.8498H44.239M33.7045 37.8498H38.5665M39.4926 32.5246H44.239M45.1651 32.5246H50.0271M50.8375 32.5246H55.6995M50.8375 27.1995H55.6995" stroke="white" stroke-width="4.39901"/>
<path d="M76.9999 38.0814C76.9999 38.0814 74.9162 36.1134 70.633 36.808C70.1699 33.4508 66.5812 31.4828 66.5812 31.4828C66.5812 31.4828 63.2241 35.5346 65.6551 40.0494C64.9605 40.3966 63.8029 40.8597 62.0664 40.8597H30.2315C29.6527 43.0592 29.6527 57.6454 45.628 57.6454C57.0886 57.6454 65.6551 52.3203 69.7068 42.5961C75.7265 43.0592 76.9999 38.0814 76.9999 38.0814Z" fill="white"/>
</g>
<defs>
<clipPath id="clip0_6_43">
<rect width="47" height="32.6453" fill="white" transform="translate(30 25)"/>
</clipPath>
</defs>
</svg>
