<svg width="225" height="82" viewBox="0 0 225 82" fill="none" xmlns="http://www.w3.org/2000/svg">
<rect x="0.0913086" y="0.433472" width="224.091" height="80.6084" rx="40.3042" fill="#066DA5"/>
<path d="M101.061 50H95.2717V31.2402H101.317C103.137 31.2402 104.694 31.6158 105.989 32.3669C107.284 33.1119 108.276 34.1837 108.966 35.5821C109.656 36.9744 110.001 38.6415 110.001 40.5835C110.001 42.5376 109.653 44.22 108.957 45.6307C108.261 47.0352 107.247 48.1161 105.916 48.8733C104.584 49.6244 102.966 50 101.061 50ZM97.5434 47.9848H100.914C102.465 47.9848 103.751 47.6856 104.771 47.0871C105.79 46.4887 106.551 45.6368 107.052 44.5315C107.552 43.4261 107.803 42.1102 107.803 40.5835C107.803 39.069 107.555 37.7652 107.061 36.6721C106.566 35.5729 105.827 34.7302 104.844 34.144C103.861 33.5516 102.636 33.2554 101.171 33.2554H97.5434V47.9848ZM119.234 50.2931C117.964 50.2931 116.85 49.9908 115.891 49.3863C114.938 48.7817 114.193 47.9359 113.656 46.8489C113.125 45.762 112.859 44.4918 112.859 43.0384C112.859 41.5728 113.125 40.2934 113.656 39.2003C114.193 38.1072 114.938 37.2584 115.891 36.6538C116.85 36.0493 117.964 35.747 119.234 35.747C120.505 35.747 121.616 36.0493 122.569 36.6538C123.527 37.2584 124.272 38.1072 124.804 39.2003C125.341 40.2934 125.61 41.5728 125.61 43.0384C125.61 44.4918 125.341 45.762 124.804 46.8489C124.272 47.9359 123.527 48.7817 122.569 49.3863C121.616 49.9908 120.505 50.2931 119.234 50.2931ZM119.234 48.3512C120.199 48.3512 120.993 48.1039 121.616 47.6092C122.239 47.1146 122.7 46.4642 122.999 45.6581C123.298 44.8521 123.448 43.9788 123.448 43.0384C123.448 42.0979 123.298 41.2216 122.999 40.4094C122.7 39.5972 122.239 38.9408 121.616 38.44C120.993 37.9393 120.199 37.6889 119.234 37.6889C118.27 37.6889 117.476 37.9393 116.853 38.44C116.23 38.9408 115.769 39.5972 115.47 40.4094C115.17 41.2216 115.021 42.0979 115.021 43.0384C115.021 43.9788 115.17 44.8521 115.47 45.6581C115.769 46.4642 116.23 47.1146 116.853 47.6092C117.476 48.1039 118.27 48.3512 119.234 48.3512ZM134.626 50.2931C133.306 50.2931 132.171 49.9817 131.218 49.3588C130.265 48.7359 129.533 47.8779 129.02 46.7848C128.507 45.6917 128.25 44.4429 128.25 43.0384C128.25 41.6094 128.513 40.3484 129.038 39.2553C129.569 38.1561 130.308 37.2981 131.255 36.6813C132.207 36.0584 133.319 35.747 134.589 35.747C135.578 35.747 136.47 35.9302 137.264 36.2966C138.057 36.663 138.708 37.1759 139.215 37.8355C139.722 38.495 140.036 39.2644 140.158 40.1438H137.996C137.832 39.5026 137.465 38.9347 136.897 38.44C136.335 37.9393 135.578 37.6889 134.626 37.6889C133.783 37.6889 133.044 37.9087 132.409 38.3484C131.78 38.782 131.288 39.3957 130.934 40.1896C130.586 40.9774 130.412 41.9025 130.412 42.9651C130.412 44.0521 130.583 44.9986 130.925 45.8047C131.273 46.6108 131.761 47.2367 132.39 47.6825C133.026 48.1283 133.771 48.3512 134.626 48.3512C135.187 48.3512 135.697 48.2535 136.155 48.0581C136.613 47.8627 137.001 47.5817 137.319 47.2153C137.636 46.8489 137.862 46.4093 137.996 45.8963H140.158C140.036 46.7268 139.734 47.4749 139.251 48.1405C138.775 48.8 138.143 49.3252 137.355 49.716C136.574 50.1008 135.664 50.2931 134.626 50.2931ZM145.334 44.8704L145.297 42.1956H145.737L151.892 35.9302H154.567L148.008 42.562H147.825L145.334 44.8704ZM143.318 50V31.2402H145.48V50H143.318ZM152.259 50L146.763 43.0384L148.301 41.5361L155.007 50H152.259ZM162.669 50.2931C161.313 50.2931 160.144 49.9939 159.161 49.3954C158.184 48.7909 157.429 47.9482 156.898 46.8673C156.373 45.7803 156.11 44.5162 156.11 43.075C156.11 41.6338 156.373 40.3636 156.898 39.2644C157.429 38.1591 158.168 37.2981 159.115 36.6813C160.068 36.0584 161.179 35.747 162.449 35.747C163.182 35.747 163.906 35.8691 164.62 36.1134C165.335 36.3576 165.985 36.7546 166.571 37.3042C167.157 37.8477 167.625 38.5683 167.973 39.466C168.321 40.3636 168.495 41.4689 168.495 42.7819V43.6979H157.649V41.8292H166.296C166.296 41.0354 166.138 40.327 165.82 39.7041C165.509 39.0812 165.063 38.5896 164.483 38.2293C163.909 37.8691 163.231 37.6889 162.449 37.6889C161.588 37.6889 160.843 37.9026 160.214 38.3301C159.591 38.7515 159.112 39.3011 158.776 39.9789C158.44 40.6568 158.272 41.3835 158.272 42.159V43.4048C158.272 44.4673 158.455 45.3681 158.822 46.107C159.194 46.8398 159.71 47.3985 160.37 47.7833C161.029 48.1619 161.796 48.3512 162.669 48.3512C163.237 48.3512 163.75 48.2718 164.208 48.113C164.672 47.9482 165.072 47.7039 165.408 47.3802C165.744 47.0505 166.003 46.6413 166.186 46.1528L168.275 46.739C168.055 47.4474 167.686 48.0703 167.167 48.6077C166.647 49.139 166.006 49.5542 165.243 49.8534C164.48 50.1466 163.622 50.2931 162.669 50.2931ZM171.783 50V35.9302H173.872V38.0553H174.018C174.275 37.3591 174.739 36.7943 175.411 36.3607C176.082 35.9271 176.84 35.7103 177.682 35.7103C177.841 35.7103 178.04 35.7134 178.278 35.7195C178.516 35.7256 178.696 35.7348 178.818 35.747V37.9454C178.745 37.9271 178.577 37.8996 178.314 37.8629C178.058 37.8202 177.786 37.7988 177.499 37.7988C176.815 37.7988 176.204 37.9423 175.667 38.2293C175.136 38.5103 174.714 38.9011 174.403 39.4018C174.098 39.8965 173.945 40.4613 173.945 41.0964V50H171.783Z" fill="white"/>
<g clip-path="url(#clip0_6_43)">
<path d="M56.6257 37.8498H61.4877H56.6257ZM50.8375 37.8498H55.6995H50.8375ZM45.1651 37.8498H50.0271H45.1651ZM39.4926 37.8498H44.239H39.4926ZM33.7045 37.8498H38.5665H33.7045ZM39.4926 32.5246H44.239H39.4926ZM45.1651 32.5246H50.0271H45.1651ZM50.8375 32.5246H55.6995H50.8375ZM50.8375 27.1995H55.6995H50.8375Z" fill="black"/>
<path d="M56.6256 37.8498H61.4877M50.8375 37.8498H55.6995M45.1651 37.8498H50.0271M39.4926 37.8498H44.239M33.7045 37.8498H38.5665M39.4926 32.5246H44.239M45.1651 32.5246H50.0271M50.8375 32.5246H55.6995M50.8375 27.1995H55.6995" stroke="white" stroke-width="4.39901"/>
<path d="M76.9999 38.0814C76.9999 38.0814 74.9162 36.1134 70.6329 36.808C70.1699 33.4508 66.5812 31.4828 66.5812 31.4828C66.5812 31.4828 63.2241 35.5346 65.6551 40.0494C64.9605 40.3966 63.8029 40.8597 62.0664 40.8597H30.2315C29.6527 43.0592 29.6527 57.6454 45.628 57.6454C57.0886 57.6454 65.6551 52.3203 69.7068 42.5961C75.7265 43.0592 76.9999 38.0814 76.9999 38.0814Z" fill="white"/>
</g>
<defs>
<clipPath id="clip0_6_43">
<rect width="47" height="32.6453" fill="white" transform="translate(30 25)"/>
</clipPath>
</defs>
</svg>
