<svg width="225" height="82" viewBox="0 0 225 82" fill="none" xmlns="http://www.w3.org/2000/svg">
<rect y="0.433472" width="224.091" height="80.6084" rx="40.3042" fill="#F03C2E"/>
<path d="M117.096 37.1027C116.894 36.4859 116.629 35.9332 116.299 35.4447C115.975 34.9501 115.587 34.5287 115.136 34.1806C114.69 33.8325 114.183 33.5669 113.615 33.3837C113.047 33.2005 112.424 33.1089 111.746 33.1089C110.635 33.1089 109.624 33.3959 108.714 33.9699C107.804 34.544 107.081 35.3897 106.543 36.5073C106.006 37.6248 105.737 38.9957 105.737 40.6201C105.737 42.2445 106.009 43.6155 106.553 44.733C107.096 45.8505 107.832 46.6963 108.76 47.2703C109.688 47.8443 110.733 48.1314 111.893 48.1314C112.968 48.1314 113.914 47.9024 114.732 47.4443C115.557 46.9802 116.198 46.3268 116.656 45.4841C117.12 44.6353 117.352 43.6368 117.352 42.4888L118.048 42.6353H112.406V40.6201H119.551V42.6353C119.551 44.1803 119.221 45.5238 118.561 46.6657C117.908 47.8077 117.004 48.6932 115.85 49.3222C114.702 49.945 113.383 50.2565 111.893 50.2565C110.232 50.2565 108.772 49.8657 107.514 49.084C106.262 48.3023 105.285 47.1909 104.583 45.7497C103.887 44.3086 103.539 42.5987 103.539 40.6201C103.539 39.1362 103.737 37.8019 104.134 36.6172C104.537 35.4264 105.105 34.4127 105.838 33.576C106.571 32.7394 107.438 32.0982 108.44 31.6524C109.441 31.2066 110.543 30.9838 111.746 30.9838C112.736 30.9838 113.658 31.1334 114.513 31.4326C115.374 31.7257 116.14 32.144 116.812 32.6875C117.49 33.2249 118.055 33.8692 118.506 34.6203C118.958 35.3653 119.27 36.1928 119.441 37.1027H117.096ZM124.03 50V35.9302H126.192V50H124.03ZM125.129 33.5852C124.708 33.5852 124.344 33.4417 124.039 33.1547C123.74 32.8677 123.59 32.5226 123.59 32.1196C123.59 31.7166 123.74 31.3715 124.039 31.0845C124.344 30.7975 124.708 30.654 125.129 30.654C125.55 30.654 125.911 30.7975 126.21 31.0845C126.515 31.3715 126.668 31.7166 126.668 32.1196C126.668 32.5226 126.515 32.8677 126.21 33.1547C125.911 33.4417 125.55 33.5852 125.129 33.5852ZM136.27 35.9302V37.7622H128.979V35.9302H136.27ZM131.104 32.5593H133.266V45.9696C133.266 46.5803 133.354 47.0383 133.531 47.3436C133.714 47.6428 133.946 47.8443 134.227 47.9482C134.514 48.0459 134.817 48.0947 135.134 48.0947C135.372 48.0947 135.568 48.0825 135.72 48.0581C135.873 48.0275 135.995 48.0031 136.087 47.9848L136.526 49.9267C136.38 49.9817 136.175 50.0366 135.913 50.0916C135.65 50.1527 135.317 50.1832 134.914 50.1832C134.304 50.1832 133.705 50.0519 133.119 49.7893C132.539 49.5267 132.056 49.1267 131.672 48.5894C131.293 48.052 131.104 47.3741 131.104 46.5558V32.5593Z" fill="white"/>
<mask id="mask0_6_24" style="mask-type:luminance" maskUnits="userSpaceOnUse" x="26" y="17" width="47" height="47">
<path d="M26 17H73V64H26V17Z" fill="white"/>
</mask>
<g mask="url(#mask0_6_24)">
<path d="M72.1143 38.4072L51.593 17.8875C51.3119 17.6062 50.9781 17.383 50.6107 17.2308C50.2433 17.0785 49.8495 17.0002 49.4519 17.0002C49.0542 17.0002 48.6604 17.0785 48.293 17.2308C47.9256 17.383 47.5918 17.6062 47.3107 17.8875L43.051 22.1493L48.4555 27.5538C49.0909 27.338 49.7739 27.3043 50.4275 27.4565C51.081 27.6087 51.6789 27.9408 52.1536 28.4151C52.6309 28.8929 52.9641 29.4954 53.115 30.1536C53.266 30.8118 53.2287 31.4993 53.0073 32.1373L58.2179 37.3464C58.8561 37.1247 59.5438 37.0874 60.2022 37.2387C60.8607 37.3899 61.4631 37.7237 61.9406 38.2016C62.275 38.536 62.5403 38.933 62.7213 39.3699C62.9024 39.8068 62.9955 40.2752 62.9955 40.7481C62.9955 41.221 62.9024 41.6893 62.7213 42.1263C62.5403 42.5632 62.275 42.9602 61.9406 43.2946C61.2644 43.97 60.3478 44.3494 59.392 44.3494C58.4363 44.3494 57.5197 43.97 56.8435 43.2946C56.3412 42.7915 55.999 42.151 55.8599 41.4538C55.7208 40.7566 55.7911 40.0338 56.0619 39.3765L51.2027 34.5188V47.3047C51.7156 47.5581 52.1607 47.93 52.5013 48.3896C52.8418 48.8493 53.0679 49.3835 53.1609 49.9479C53.2539 50.5123 53.2111 51.0908 53.036 51.6354C52.8609 52.18 52.5586 52.6751 52.1541 53.0795C51.8197 53.414 51.4227 53.6793 50.9858 53.8603C50.5489 54.0413 50.0805 54.1345 49.6076 54.1345C49.1347 54.1345 48.6664 54.0413 48.2294 53.8603C47.7925 53.6793 47.3955 53.414 47.0611 53.0795C46.7266 52.7451 46.4612 52.3481 46.2802 51.9111C46.0991 51.4742 46.0059 51.0058 46.0059 50.5328C46.0059 50.0598 46.0991 49.5914 46.2802 49.1544C46.4612 48.7175 46.7266 48.3204 47.0611 47.986C47.3981 47.6484 47.7986 47.3808 48.2396 47.1989V34.2953C47.8004 34.1144 47.4013 33.8485 47.0652 33.5129C46.7291 33.1773 46.4626 32.7787 46.2811 32.3398C46.0995 31.9009 46.0065 31.4304 46.0073 30.9555C46.008 30.4805 46.1027 30.0104 46.2857 29.5721L40.9569 24.2423L26.8846 38.3111C26.3175 38.8792 25.999 39.6492 25.999 40.4519C25.999 41.2547 26.3175 42.0246 26.8846 42.5928L47.4069 63.1151C47.975 63.682 48.7449 64.0004 49.5475 64.0004C50.3501 64.0004 51.12 63.682 51.6881 63.1151L72.1143 42.689C72.6813 42.1208 72.9998 41.3508 72.9998 40.5481C72.9998 39.7454 72.6813 38.9754 72.1143 38.4072Z" fill="white"/>
</g>
</svg>
