<svg width="225" height="82" viewBox="0 0 225 82" fill="none" xmlns="http://www.w3.org/2000/svg">
<rect y="0.433472" width="224.091" height="80.6084" rx="40.3042" fill="#F03C2E"/>
<path d="M121.096 37.1027C120.894 36.4859 120.629 35.9332 120.299 35.4447C119.975 34.9501 119.587 34.5287 119.136 34.1806C118.69 33.8325 118.183 33.5669 117.615 33.3837C117.047 33.2005 116.424 33.1089 115.746 33.1089C114.635 33.1089 113.624 33.3959 112.714 33.9699C111.804 34.544 111.081 35.3897 110.543 36.5073C110.006 37.6248 109.737 38.9957 109.737 40.6201C109.737 42.2445 110.009 43.6155 110.553 44.733C111.096 45.8505 111.832 46.6963 112.76 47.2703C113.688 47.8443 114.733 48.1314 115.893 48.1314C116.968 48.1314 117.914 47.9024 118.732 47.4443C119.557 46.9802 120.198 46.3268 120.656 45.4841C121.12 44.6353 121.352 43.6368 121.352 42.4888L122.048 42.6353H116.406V40.6201H123.551V42.6353C123.551 44.1803 123.221 45.5238 122.561 46.6657C121.908 47.8077 121.004 48.6932 119.85 49.3222C118.702 49.945 117.383 50.2565 115.893 50.2565C114.232 50.2565 112.772 49.8657 111.514 49.084C110.262 48.3023 109.285 47.1909 108.583 45.7497C107.887 44.3086 107.539 42.5987 107.539 40.6201C107.539 39.1362 107.737 37.8019 108.134 36.6172C108.537 35.4264 109.105 34.4127 109.838 33.576C110.571 32.7394 111.438 32.0982 112.44 31.6524C113.441 31.2066 114.543 30.9838 115.746 30.9838C116.736 30.9838 117.658 31.1334 118.513 31.4326C119.374 31.7257 120.14 32.144 120.812 32.6875C121.49 33.2249 122.055 33.8692 122.506 34.6203C122.958 35.3653 123.27 36.1928 123.441 37.1027H121.096ZM128.03 50V35.9302H130.192V50H128.03ZM129.129 33.5852C128.708 33.5852 128.344 33.4417 128.039 33.1547C127.74 32.8677 127.59 32.5226 127.59 32.1196C127.59 31.7166 127.74 31.3715 128.039 31.0845C128.344 30.7975 128.708 30.654 129.129 30.654C129.55 30.654 129.911 30.7975 130.21 31.0845C130.515 31.3715 130.668 31.7166 130.668 32.1196C130.668 32.5226 130.515 32.8677 130.21 33.1547C129.911 33.4417 129.55 33.5852 129.129 33.5852ZM140.27 35.9302V37.7622H132.979V35.9302H140.27ZM135.104 32.5593H137.266V45.9696C137.266 46.5803 137.354 47.0383 137.531 47.3436C137.714 47.6428 137.946 47.8443 138.227 47.9482C138.514 48.0459 138.817 48.0947 139.134 48.0947C139.372 48.0947 139.568 48.0825 139.72 48.0581C139.873 48.0275 139.995 48.0031 140.087 47.9848L140.526 49.9267C140.38 49.9817 140.175 50.0366 139.913 50.0916C139.65 50.1527 139.317 50.1832 138.914 50.1832C138.304 50.1832 137.705 50.0519 137.119 49.7893C136.539 49.5267 136.056 49.1267 135.672 48.5894C135.293 48.052 135.104 47.3741 135.104 46.5558V32.5593Z" fill="white"/>
<mask id="mask0_6_24" style="mask-type:luminance" maskUnits="userSpaceOnUse" x="26" y="17" width="47" height="47">
<path d="M26 17H73V64H26V17Z" fill="white"/>
</mask>
<g mask="url(#mask0_6_24)">
<path d="M72.1143 38.4072L51.593 17.8875C51.3119 17.6062 50.9781 17.383 50.6107 17.2308C50.2433 17.0785 49.8495 17.0002 49.4519 17.0002C49.0542 17.0002 48.6604 17.0785 48.293 17.2308C47.9256 17.383 47.5918 17.6062 47.3107 17.8875L43.051 22.1493L48.4555 27.5538C49.0909 27.338 49.7739 27.3043 50.4275 27.4565C51.081 27.6087 51.6789 27.9408 52.1536 28.4151C52.6309 28.8929 52.9641 29.4954 53.115 30.1536C53.266 30.8118 53.2287 31.4993 53.0073 32.1373L58.2179 37.3464C58.8561 37.1247 59.5438 37.0874 60.2022 37.2387C60.8607 37.3899 61.4631 37.7237 61.9406 38.2016C62.275 38.536 62.5403 38.933 62.7213 39.3699C62.9024 39.8069 62.9955 40.2752 62.9955 40.7481C62.9955 41.221 62.9024 41.6893 62.7213 42.1263C62.5403 42.5632 62.275 42.9602 61.9406 43.2946C61.2644 43.97 60.3478 44.3494 59.392 44.3494C58.4363 44.3494 57.5197 43.97 56.8435 43.2946C56.3412 42.7915 55.999 42.151 55.8599 41.4538C55.7208 40.7566 55.7911 40.0338 56.0619 39.3765L51.2027 34.5188V47.3047C51.7156 47.5581 52.1607 47.93 52.5013 48.3896C52.8418 48.8493 53.0679 49.3835 53.1609 49.9479C53.2539 50.5123 53.2111 51.0908 53.036 51.6354C52.8609 52.18 52.5586 52.675 52.1541 53.0795C51.8197 53.414 51.4227 53.6793 50.9858 53.8603C50.5489 54.0413 50.0805 54.1345 49.6076 54.1345C49.1347 54.1345 48.6664 54.0413 48.2294 53.8603C47.7925 53.6793 47.3955 53.414 47.0611 53.0795C46.7266 52.7451 46.4612 52.3481 46.2802 51.9111C46.0991 51.4742 46.0059 51.0058 46.0059 50.5328C46.0059 50.0598 46.0991 49.5914 46.2802 49.1544C46.4612 48.7175 46.7266 48.3204 47.0611 47.986C47.3981 47.6484 47.7986 47.3808 48.2396 47.1989V34.2953C47.8004 34.1144 47.4013 33.8485 47.0652 33.5129C46.7291 33.1773 46.4626 32.7787 46.2811 32.3398C46.0995 31.9009 46.0065 31.4304 46.0073 30.9555C46.008 30.4805 46.1027 30.0104 46.2857 29.5721L40.9569 24.2423L26.8846 38.3111C26.3175 38.8792 25.999 39.6492 25.999 40.4519C25.999 41.2547 26.3175 42.0246 26.8846 42.5928L47.4069 63.1151C47.975 63.682 48.7449 64.0004 49.5475 64.0004C50.3501 64.0004 51.12 63.682 51.6881 63.1151L72.1143 42.689C72.6813 42.1208 72.9998 41.3508 72.9998 40.5481C72.9998 39.7454 72.6813 38.9754 72.1143 38.4072Z" fill="white"/>
</g>
</svg>
