<svg width="225" height="82" viewBox="0 0 225 82" fill="none" xmlns="http://www.w3.org/2000/svg">
<rect y="0.608337" width="224.091" height="80.6084" rx="40.3042" fill="#EAD41C"/>
<path d="M79.5824 31.8372H81.8541V45.2475C81.8541 46.4444 81.6343 47.4611 81.1946 48.2978C80.7549 49.1344 80.1351 49.7695 79.3351 50.203C78.5351 50.6366 77.5917 50.8534 76.5047 50.8534C75.4787 50.8534 74.5658 50.6672 73.7658 50.2946C72.9658 49.916 72.3368 49.3786 71.8788 48.6825C71.4208 47.9863 71.1918 47.1589 71.1918 46.2001H73.4269C73.4269 46.7314 73.5582 47.1955 73.8208 47.5924C74.0895 47.9833 74.4559 48.2886 74.92 48.5084C75.3841 48.7283 75.9123 48.8382 76.5047 48.8382C77.1581 48.8382 77.7138 48.7008 78.1718 48.426C78.6298 48.1512 78.9779 47.7482 79.216 47.2169C79.4603 46.6795 79.5824 46.023 79.5824 45.2475V31.8372ZM90.2539 50.9267C89.3623 50.9267 88.5532 50.7588 87.8265 50.4229C87.0998 50.0809 86.5227 49.5893 86.0952 48.9481C85.6678 48.3008 85.454 47.5191 85.454 46.6031C85.454 45.7971 85.6128 45.1436 85.9303 44.6429C86.2479 44.136 86.6723 43.7391 87.2036 43.4521C87.7349 43.1651 88.3211 42.9513 88.9623 42.8109C89.6096 42.6643 90.26 42.5483 90.9134 42.4628C91.7683 42.3529 92.4615 42.2704 92.9927 42.2155C93.5301 42.1544 93.921 42.0537 94.1652 41.9132C94.4156 41.7727 94.5408 41.5285 94.5408 41.1804V41.1071C94.5408 40.2033 94.2935 39.5011 93.7988 39.0003C93.3103 38.4996 92.5683 38.2492 91.5729 38.2492C90.5409 38.2492 89.7318 38.4751 89.1455 38.927C88.5593 39.3789 88.1471 39.8614 87.9089 40.3743L85.8571 39.6415C86.2235 38.7866 86.712 38.1209 87.3227 37.6446C87.9394 37.1622 88.6112 36.8263 89.3379 36.637C90.0707 36.4416 90.7913 36.3439 91.4997 36.3439C91.9515 36.3439 92.4706 36.3989 93.0569 36.5088C93.6492 36.6126 94.2202 36.8294 94.7698 37.1591C95.3255 37.4889 95.7865 37.9866 96.153 38.6522C96.5194 39.3179 96.7026 40.2094 96.7026 41.327V50.5969H94.5408V48.6916H94.4309C94.2843 48.997 94.04 49.3237 93.6981 49.6718C93.3561 50.0198 92.9011 50.316 92.3332 50.5603C91.7653 50.8046 91.0722 50.9267 90.2539 50.9267ZM90.5836 48.9848C91.4386 48.9848 92.1592 48.8168 92.7454 48.481C93.3378 48.1451 93.7836 47.7115 94.0828 47.1802C94.3881 46.6489 94.5408 46.0902 94.5408 45.5039V43.5254C94.4492 43.6353 94.2477 43.7361 93.9362 43.8277C93.6309 43.9131 93.2767 43.9895 92.8737 44.0567C92.4767 44.1177 92.0889 44.1727 91.7103 44.2215C91.3378 44.2643 91.0355 44.3009 90.8035 44.3315C90.2417 44.4047 89.7165 44.5238 89.228 44.6887C88.7455 44.8475 88.3547 45.0887 88.0555 45.4123C87.7624 45.7299 87.6158 46.1635 87.6158 46.7131C87.6158 47.4642 87.8936 48.0321 88.4494 48.4168C89.0112 48.7954 89.7226 48.9848 90.5836 48.9848ZM111.649 36.5271L106.447 50.5969H104.248L99.0452 36.5271H101.39L105.274 47.739H105.421L109.304 36.5271H111.649ZM118.215 50.9267C117.323 50.9267 116.514 50.7588 115.788 50.4229C115.061 50.0809 114.484 49.5893 114.056 48.9481C113.629 48.3008 113.415 47.5191 113.415 46.6031C113.415 45.7971 113.574 45.1436 113.891 44.6429C114.209 44.136 114.633 43.7391 115.165 43.4521C115.696 43.1651 116.282 42.9513 116.923 42.8109C117.571 42.6643 118.221 42.5483 118.874 42.4628C119.729 42.3529 120.422 42.2704 120.954 42.2155C121.491 42.1544 121.882 42.0537 122.126 41.9132C122.377 41.7727 122.502 41.5285 122.502 41.1804V41.1071C122.502 40.2033 122.254 39.5011 121.76 39.0003C121.271 38.4996 120.529 38.2492 119.534 38.2492C118.502 38.2492 117.693 38.4751 117.107 38.927C116.52 39.3789 116.108 39.8614 115.87 40.3743L113.818 39.6415C114.184 38.7866 114.673 38.1209 115.284 37.6446C115.9 37.1622 116.572 36.8263 117.299 36.637C118.032 36.4416 118.752 36.3439 119.461 36.3439C119.913 36.3439 120.432 36.3989 121.018 36.5088C121.61 36.6126 122.181 36.8294 122.731 37.1591C123.287 37.4889 123.748 37.9866 124.114 38.6522C124.48 39.3179 124.664 40.2094 124.664 41.327V50.5969H122.502V48.6916H122.392C122.245 48.997 122.001 49.3237 121.659 49.6718C121.317 50.0198 120.862 50.316 120.294 50.5603C119.726 50.8046 119.033 50.9267 118.215 50.9267ZM118.545 48.9848C119.4 48.9848 120.12 48.8168 120.706 48.481C121.299 48.1451 121.745 47.7115 122.044 47.1802C122.349 46.6489 122.502 46.0902 122.502 45.5039V43.5254C122.41 43.6353 122.209 43.7361 121.897 43.8277C121.592 43.9131 121.238 43.9895 120.835 44.0567C120.438 44.1177 120.05 44.1727 119.671 44.2215C119.299 44.2643 118.997 44.3009 118.765 44.3315C118.203 44.4047 117.678 44.5238 117.189 44.6887C116.707 44.8475 116.316 45.0887 116.017 45.4123C115.723 45.7299 115.577 46.1635 115.577 46.7131C115.577 47.4642 115.855 48.0321 116.41 48.4168C116.972 48.7954 117.684 48.9848 118.545 48.9848ZM138.575 39.6782L136.633 40.2278C136.511 39.9041 136.331 39.5896 136.093 39.2843C135.861 38.9728 135.543 38.7163 135.14 38.5148C134.737 38.3133 134.221 38.2125 133.592 38.2125C132.731 38.2125 132.014 38.411 131.44 38.808C130.872 39.1988 130.588 39.6965 130.588 40.301C130.588 40.8384 130.783 41.2628 131.174 41.5743C131.565 41.8857 132.176 42.1453 133.006 42.3529L135.095 42.8658C136.353 43.1712 137.29 43.6383 137.907 44.2673C138.523 44.8902 138.832 45.6932 138.832 46.6764C138.832 47.4825 138.6 48.2031 138.136 48.8382C137.678 49.4733 137.037 49.974 136.212 50.3404C135.388 50.7068 134.429 50.89 133.336 50.89C131.901 50.89 130.713 50.5786 129.773 49.9557C128.832 49.3328 128.237 48.4229 127.986 47.226L130.038 46.7131C130.234 47.4703 130.603 48.0382 131.147 48.4168C131.696 48.7954 132.414 48.9848 133.299 48.9848C134.307 48.9848 135.107 48.771 135.699 48.3436C136.298 47.91 136.597 47.3909 136.597 46.7863C136.597 46.2978 136.426 45.8887 136.084 45.5589C135.742 45.223 135.217 44.9727 134.508 44.8078L132.163 44.2582C130.875 43.9528 129.928 43.4796 129.324 42.8384C128.725 42.1911 128.426 41.3819 128.426 40.411C128.426 39.6171 128.649 38.9148 129.095 38.3041C129.547 37.6935 130.16 37.2141 130.936 36.866C131.718 36.5179 132.603 36.3439 133.592 36.3439C134.985 36.3439 136.078 36.6492 136.872 37.2599C137.672 37.8706 138.24 38.6767 138.575 39.6782ZM147.802 50.89C146.483 50.89 145.347 50.5786 144.394 49.9557C143.442 49.3328 142.709 48.4748 142.196 47.3817C141.683 46.2887 141.426 45.0398 141.426 43.6353C141.426 42.2063 141.689 40.9453 142.214 39.8522C142.746 38.753 143.484 37.895 144.431 37.2782C145.384 36.6553 146.495 36.3439 147.765 36.3439C148.754 36.3439 149.646 36.5271 150.44 36.8935C151.234 37.2599 151.884 37.7729 152.391 38.4324C152.898 39.0919 153.212 39.8614 153.335 40.7407H151.173C151.008 40.0995 150.641 39.5316 150.074 39.037C149.512 38.5362 148.754 38.2858 147.802 38.2858C146.959 38.2858 146.22 38.5057 145.585 38.9454C144.956 39.3789 144.465 39.9926 144.11 40.7865C143.762 41.5743 143.588 42.4994 143.588 43.562C143.588 44.649 143.759 45.5955 144.101 46.4016C144.449 47.2077 144.938 47.8336 145.567 48.2794C146.202 48.7252 146.947 48.9481 147.802 48.9481C148.364 48.9481 148.874 48.8504 149.332 48.655C149.79 48.4596 150.177 48.1787 150.495 47.8123C150.812 47.4459 151.038 47.0062 151.173 46.4932H153.335C153.212 47.3237 152.91 48.0718 152.428 48.7374C151.951 49.397 151.319 49.9221 150.532 50.313C149.75 50.6977 148.84 50.89 147.802 50.89ZM156.495 50.5969V36.5271H158.583V38.6522H158.73C158.986 37.9561 159.45 37.3912 160.122 36.9576C160.794 36.524 161.551 36.3073 162.394 36.3073C162.553 36.3073 162.751 36.3103 162.989 36.3164C163.227 36.3225 163.408 36.3317 163.53 36.3439V38.5423C163.456 38.524 163.288 38.4965 163.026 38.4599C162.769 38.4171 162.498 38.3957 162.211 38.3957C161.527 38.3957 160.916 38.5393 160.379 38.8263C159.847 39.1072 159.426 39.498 159.115 39.9988C158.809 40.4934 158.656 41.0583 158.656 41.6934V50.5969H156.495ZM166.092 50.5969V36.5271H168.254V50.5969H166.092ZM167.191 34.1821C166.77 34.1821 166.407 34.0386 166.101 33.7516C165.802 33.4646 165.652 33.1196 165.652 32.7165C165.652 32.3135 165.802 31.9685 166.101 31.6814C166.407 31.3944 166.77 31.2509 167.191 31.2509C167.613 31.2509 167.973 31.3944 168.272 31.6814C168.578 31.9685 168.73 32.3135 168.73 32.7165C168.73 33.1196 168.578 33.4646 168.272 33.7516C167.973 34.0386 167.613 34.1821 167.191 34.1821ZM172.213 55.8731V36.5271H174.302V38.7621H174.558C174.717 38.5179 174.937 38.2064 175.218 37.8278C175.505 37.4431 175.914 37.1011 176.445 36.8019C176.983 36.4966 177.709 36.3439 178.625 36.3439C179.81 36.3439 180.854 36.6401 181.758 37.2324C182.662 37.8248 183.367 38.6644 183.874 39.7514C184.381 40.8384 184.634 42.1208 184.634 43.5987C184.634 45.0887 184.381 46.3803 183.874 47.4733C183.367 48.5603 182.665 49.4031 181.767 50.0015C180.87 50.5939 179.835 50.89 178.662 50.89C177.758 50.89 177.035 50.7404 176.491 50.4412C175.948 50.1359 175.529 49.7908 175.236 49.4061C174.943 49.0153 174.717 48.6916 174.558 48.4352H174.375V55.8731H172.213ZM174.338 43.562C174.338 44.6246 174.494 45.562 174.806 46.3741C175.117 47.1802 175.572 47.8123 176.17 48.2703C176.769 48.7222 177.502 48.9481 178.369 48.9481C179.273 48.9481 180.027 48.71 180.631 48.2336C181.242 47.7512 181.7 47.1039 182.005 46.2917C182.317 45.4734 182.473 44.5635 182.473 43.562C182.473 42.5727 182.32 41.6811 182.015 40.8873C181.715 40.0873 181.26 39.4553 180.65 38.9912C180.045 38.5209 179.285 38.2858 178.369 38.2858C177.49 38.2858 176.751 38.5087 176.152 38.9545C175.554 39.3942 175.102 40.011 174.796 40.8048C174.491 41.5926 174.338 42.5117 174.338 43.562ZM194.051 36.5271V38.3591H186.76V36.5271H194.051ZM188.885 33.1562H191.046V46.5665C191.046 47.1772 191.135 47.6352 191.312 47.9405C191.495 48.2397 191.727 48.4413 192.008 48.5451C192.295 48.6428 192.598 48.6916 192.915 48.6916C193.153 48.6916 193.349 48.6794 193.501 48.655C193.654 48.6245 193.776 48.6 193.868 48.5817L194.307 50.5236C194.161 50.5786 193.956 50.6336 193.694 50.6885C193.431 50.7496 193.098 50.7801 192.695 50.7801C192.085 50.7801 191.486 50.6488 190.9 50.3862C190.32 50.1237 189.837 49.7237 189.453 49.1863C189.074 48.6489 188.885 47.971 188.885 47.1527V33.1562Z" fill="black"/>
<rect x="24.1825" y="21.5665" width="37.8859" height="39.4981" rx="2.41825" fill="black"/>
<path d="M34.9776 41.4085H29.5349V38.5711H44.0573V41.4085H38.6147V56.6274H34.9776V41.4085ZM51.9249 56.9369C50.6868 56.9369 49.6464 56.7993 48.8038 56.5242C47.9783 56.2491 47.2819 55.8707 46.7144 55.3892C46.1469 54.9077 45.5622 54.2629 44.9604 53.4546L47.4109 51.4169C48.1159 52.3971 48.7952 53.0935 49.4486 53.5062C50.1193 53.9017 50.9447 54.0995 51.9249 54.0995C53.2834 54.0995 54.2722 53.9017 54.8913 53.5062C55.5104 53.1107 55.8199 52.4744 55.8199 51.5974C55.8199 51.1503 55.6737 50.7892 55.3814 50.514C55.0891 50.2217 54.5818 49.9552 53.8595 49.7144C53.1545 49.4737 52.0969 49.2071 50.6868 48.9148C49.0359 48.5708 47.8064 47.9604 46.9981 47.0833C46.2071 46.1891 45.8116 45.0026 45.8116 43.5237C45.8116 42.4575 46.0781 41.5289 46.6112 40.7379C47.1615 39.9468 47.9353 39.3363 48.9327 38.9064C49.9301 38.4765 51.0909 38.2616 52.415 38.2616C54.1347 38.2616 55.5018 38.5195 56.5164 39.0354C57.531 39.5341 58.3564 40.2736 58.9927 41.2538L56.5938 43.2141C56.0607 42.6811 55.6136 42.2769 55.2524 42.0018C54.9085 41.7095 54.513 41.4859 54.0659 41.3311C53.6188 41.1764 53.0685 41.099 52.415 41.099C51.4348 41.099 50.6954 41.3139 50.1967 41.7439C49.698 42.1738 49.4486 42.7928 49.4486 43.6011C49.4486 44.3577 49.7668 44.9166 50.403 45.2777C51.0393 45.6217 51.8561 45.9054 52.8535 46.1289C54.3324 46.4385 55.5104 46.7566 56.3874 47.0833C57.2644 47.4101 57.9953 47.9346 58.5799 48.6568C59.1646 49.3791 59.457 50.3679 59.457 51.6232C59.457 53.4116 58.8293 54.7444 57.574 55.6214C56.3358 56.4984 54.4528 56.9369 51.9249 56.9369Z" fill="#EAD41C"/>
</svg>
