<svg width="225" height="81" viewBox="0 0 225 81" fill="none" xmlns="http://www.w3.org/2000/svg">
<rect width="224.091" height="80.6084" rx="40.3042" fill="#C14600"/>
<path d="M111.453 30.2402H113.725V43.6505C113.725 44.8474 113.505 45.8642 113.065 46.7008C112.626 47.5374 112.006 48.1725 111.206 48.6061C110.406 49.0397 109.462 49.2565 108.375 49.2565C107.349 49.2565 106.437 49.0702 105.637 48.6977C104.837 48.3191 104.208 47.7817 103.75 47.0856C103.292 46.3894 103.063 45.5619 103.063 44.6032H105.298C105.298 45.1345 105.429 45.5986 105.691 45.9955C105.96 46.3863 106.327 46.6917 106.791 46.9115C107.255 47.1314 107.783 47.2413 108.375 47.2413C109.029 47.2413 109.585 47.1039 110.043 46.8291C110.501 46.5543 110.849 46.1512 111.087 45.6199C111.331 45.0826 111.453 44.4261 111.453 43.6505V30.2402ZM122.125 49.3298C121.233 49.3298 120.424 49.1618 119.697 48.826C118.971 48.484 118.393 47.9924 117.966 47.3512C117.538 46.7039 117.325 45.9222 117.325 45.0062C117.325 44.2001 117.484 43.5467 117.801 43.046C118.119 42.5391 118.543 42.1422 119.074 41.8552C119.606 41.5682 120.192 41.3544 120.833 41.214C121.48 41.0674 122.131 40.9514 122.784 40.8659C123.639 40.756 124.332 40.6735 124.863 40.6186C125.401 40.5575 125.792 40.4567 126.036 40.3163C126.286 40.1758 126.412 39.9316 126.412 39.5835V39.5102C126.412 38.6064 126.164 37.9041 125.67 37.4034C125.181 36.9026 124.439 36.6523 123.444 36.6523C122.412 36.6523 121.602 36.8782 121.016 37.3301C120.43 37.782 120.018 38.2644 119.78 38.7774L117.728 38.0446C118.094 37.1897 118.583 36.524 119.193 36.0477C119.81 35.5653 120.482 35.2294 121.209 35.0401C121.941 34.8447 122.662 34.747 123.37 34.747C123.822 34.747 124.341 34.8019 124.928 34.9119C125.52 35.0157 126.091 35.2325 126.641 35.5622C127.196 35.892 127.657 36.3897 128.024 37.0553C128.39 37.7209 128.573 38.6125 128.573 39.73V49H126.412V47.0947H126.302C126.155 47.4 125.911 47.7268 125.569 48.0748C125.227 48.4229 124.772 48.7191 124.204 48.9634C123.636 49.2076 122.943 49.3298 122.125 49.3298ZM122.454 47.3878C123.309 47.3878 124.03 47.2199 124.616 46.884C125.208 46.5482 125.654 46.1146 125.954 45.5833C126.259 45.052 126.412 44.4933 126.412 43.907V41.9284C126.32 42.0384 126.118 42.1391 125.807 42.2307C125.502 42.3162 125.147 42.3926 124.744 42.4597C124.347 42.5208 123.96 42.5758 123.581 42.6246C123.209 42.6674 122.906 42.704 122.674 42.7345C122.112 42.8078 121.587 42.9269 121.099 43.0918C120.616 43.2505 120.225 43.4918 119.926 43.8154C119.633 44.133 119.487 44.5665 119.487 45.1161C119.487 45.8673 119.764 46.4352 120.32 46.8199C120.882 47.1985 121.593 47.3878 122.454 47.3878ZM143.52 34.9302L138.317 49H136.119L130.916 34.9302H133.261L137.145 46.1421H137.291L141.175 34.9302H143.52ZM150.086 49.3298C149.194 49.3298 148.385 49.1618 147.658 48.826C146.932 48.484 146.354 47.9924 145.927 47.3512C145.5 46.7039 145.286 45.9222 145.286 45.0062C145.286 44.2001 145.445 43.5467 145.762 43.046C146.08 42.5391 146.504 42.1422 147.035 41.8552C147.567 41.5682 148.153 41.3544 148.794 41.214C149.441 41.0674 150.092 40.9514 150.745 40.8659C151.6 40.756 152.293 40.6735 152.824 40.6186C153.362 40.5575 153.753 40.4567 153.997 40.3163C154.247 40.1758 154.373 39.9316 154.373 39.5835V39.5102C154.373 38.6064 154.125 37.9041 153.631 37.4034C153.142 36.9026 152.4 36.6523 151.405 36.6523C150.373 36.6523 149.564 36.8782 148.977 37.3301C148.391 37.782 147.979 38.2644 147.741 38.7774L145.689 38.0446C146.055 37.1897 146.544 36.524 147.154 36.0477C147.771 35.5653 148.443 35.2294 149.17 35.0401C149.902 34.8447 150.623 34.747 151.331 34.747C151.783 34.747 152.302 34.8019 152.889 34.9119C153.481 35.0157 154.052 35.2325 154.602 35.5622C155.157 35.892 155.618 36.3897 155.985 37.0553C156.351 37.7209 156.534 38.6125 156.534 39.73V49H154.373V47.0947H154.263C154.116 47.4 153.872 47.7268 153.53 48.0748C153.188 48.4229 152.733 48.7191 152.165 48.9634C151.597 49.2076 150.904 49.3298 150.086 49.3298ZM150.415 47.3878C151.27 47.3878 151.991 47.2199 152.577 46.884C153.17 46.5482 153.615 46.1146 153.915 45.5833C154.22 45.052 154.373 44.4933 154.373 43.907V41.9284C154.281 42.0384 154.079 42.1391 153.768 42.2307C153.463 42.3162 153.108 42.3926 152.705 42.4597C152.308 42.5208 151.921 42.5758 151.542 42.6246C151.17 42.6674 150.867 42.704 150.635 42.7345C150.073 42.8078 149.548 42.9269 149.06 43.0918C148.577 43.2505 148.186 43.4918 147.887 43.8154C147.594 44.133 147.448 44.5665 147.448 45.1161C147.448 45.8673 147.725 46.4352 148.281 46.8199C148.843 47.1985 149.554 47.3878 150.415 47.3878Z" fill="white"/>
<path d="M54.7366 53.885C54.7366 53.885 52.7536 55.0909 56.115 55.4359C60.1615 55.9518 62.317 55.8663 66.7956 55.0054C67.6957 55.5567 68.6477 56.0183 69.6379 56.3839C59.5618 60.6916 46.8112 56.1259 54.7366 53.885ZM53.4469 48.2859C53.4469 48.2859 51.293 49.9223 54.6528 50.2689C59.0459 50.6994 62.4911 50.7848 68.4368 49.5805C69.015 50.1669 69.723 50.6093 70.5036 50.8719C58.3575 54.4896 44.7476 51.2152 53.4469 48.2859ZM77.2215 58.104C77.2215 58.104 78.6853 59.3099 75.5851 60.2579C69.8136 61.9829 51.3801 62.4988 46.2114 60.2579C44.4026 59.4841 47.8478 58.3636 48.9521 58.1911C50.0726 57.9331 50.6771 57.9331 50.6771 57.9331C48.6942 56.5547 37.4977 60.7754 44.9926 61.9797C65.58 65.3394 82.5497 60.5158 77.2086 58.104H77.2215ZM55.6684 42.4273C55.6684 42.4273 46.2792 44.6682 52.3087 45.4421C54.893 45.7871 59.9745 45.7 64.7127 45.3566C68.5883 45.0116 72.4672 44.3248 72.4672 44.3248C72.4672 44.3248 71.0888 44.9278 70.1408 45.5307C60.5807 48.0296 42.231 46.9091 47.4867 44.3248C51.9653 42.171 55.67 42.4305 55.67 42.4305L55.6684 42.4273ZM72.4672 51.8166C82.1144 46.8189 77.6358 41.9985 74.534 42.5998C73.7602 42.7723 73.4135 42.9448 73.4135 42.9448C73.4135 42.9448 73.6715 42.4289 74.2744 42.2564C80.391 40.1026 85.2146 48.7164 72.2915 52.0745C72.2915 52.0745 72.3769 51.9891 72.464 51.8166H72.4672ZM56.6196 65.4265C65.9218 66.0294 80.1363 65.0815 80.4797 60.6867C80.4797 60.6867 79.7913 62.4117 72.8138 63.7015C64.8884 65.1653 55.0687 64.9912 49.2971 64.0465C49.2971 64.0465 50.503 65.0799 56.6196 65.4265Z" fill="white"/>
<path d="M66.6247 14.0016C66.6247 14.0016 71.9658 19.4281 61.5432 27.6115C53.1873 34.244 59.6489 38.0342 61.5432 42.3419C56.6325 37.9487 53.1019 34.0715 55.5137 30.4554C59.0443 25.1126 68.7786 22.5445 66.6247 14.0016ZM63.884 38.7242C66.3829 41.5664 63.1956 44.1507 63.1956 44.1507C63.1956 44.1507 69.5701 40.878 66.6408 36.8283C63.9711 32.9526 61.9011 31.0567 73.1008 24.5968C73.1008 24.5968 55.4427 28.9899 63.884 38.7242Z" fill="white"/>
</svg>
