<svg width="225" height="81" viewBox="0 0 225 81" fill="none" xmlns="http://www.w3.org/2000/svg">
<rect y="0.216736" width="224.091" height="80.6084" rx="40.3042" fill="#020420"/>
<path d="M111.778 54.692C112.154 54.692 112.475 54.3798 112.475 53.9948V37.7834C112.475 37.7834 113.347 39.3522 114.915 41.967L121.714 53.6461C122.025 54.2981 122.715 54.692 123.283 54.692H127.989V28.5447H123.283C122.969 28.5447 122.585 28.8051 122.585 29.2419V45.6276L119.448 40.0495L113.172 29.4163C112.867 28.8743 112.21 28.5447 111.603 28.5447H107.071V54.692H111.778Z" fill="white"/>
<path d="M172.614 35.8659H174.88C175.458 35.8659 175.926 35.3977 175.926 34.82V30.2878H180.807V35.8659H185.513V40.0495H180.807V47.5451C180.807 49.3754 181.688 50.1598 183.247 50.1598H185.513V54.692H182.55C178.532 54.692 175.926 52.0897 175.926 47.7194V40.0495H172.614V35.8659Z" fill="white"/>
<path d="M149.081 35.866V46.6735C149.081 49.1146 148.165 51.1724 146.815 52.6003C145.466 54.0281 143.602 54.692 141.063 54.692C138.524 54.692 136.486 54.0281 135.136 52.6003C133.809 51.1724 132.87 49.1146 132.87 46.6735V35.866H135.659C136.254 35.866 136.839 35.9744 137.228 36.3889C137.617 36.7804 137.751 37.0104 137.751 37.6091V46.6735C137.751 48.0783 137.83 48.9461 138.448 49.6369C139.066 50.3047 139.828 50.5085 141.063 50.5085C142.321 50.5085 142.886 50.3047 143.503 49.6369C144.121 48.9461 144.201 48.0783 144.201 46.6735V37.6091C144.201 37.0104 144.335 36.6291 144.723 36.2146C145.065 35.8504 145.426 35.859 145.944 35.866C146.015 35.8669 146.22 35.866 146.292 35.866H149.081Z" fill="white"/>
<path d="M163.898 44.9304L169.825 35.866H165.293C164.721 35.866 164.214 36.0709 163.898 36.5632L161.109 40.7468L158.494 36.7375C158.178 36.2452 157.497 35.866 156.926 35.866H152.568L158.494 44.7561L152.045 54.692H156.577C157.143 54.692 157.655 54.132 157.971 53.6462L161.109 48.9396L164.421 53.8205C164.738 54.3063 165.249 54.692 165.816 54.692H170.348L163.898 44.9304Z" fill="white"/>
<path d="M67.285 53.0799H86.634C87.2515 53.0799 87.8424 52.863 88.3772 52.5569C88.912 52.2508 89.4632 51.8668 89.7717 51.3367C90.0803 50.8066 90.295 50.2054 90.2947 49.5934C90.2943 48.9813 90.0808 48.3803 89.7717 47.8506L76.6981 25.3637C76.3895 24.8338 76.0125 24.4494 75.4779 24.1435C74.9432 23.8375 74.1778 23.6205 73.5604 23.6205C72.943 23.6205 72.3518 23.8375 71.8172 24.1435C71.2826 24.4494 70.9056 24.8338 70.597 25.3637L67.285 31.1161L60.661 19.9595C60.3521 19.4296 59.9756 18.8713 59.4408 18.5654C58.906 18.2595 58.3151 18.2167 57.6977 18.2167C57.0802 18.2167 56.4893 18.2595 55.9545 18.5654C55.4198 18.8713 54.8688 19.4296 54.56 19.9595L38.3486 47.8506C38.0396 48.3803 38.0003 48.9813 38 49.5934C37.9997 50.2054 38.04 50.8066 38.3486 51.3367C38.6572 51.8666 39.2084 52.2508 39.7432 52.5569C40.2779 52.863 40.8689 53.0799 41.4863 53.0799H53.6884C58.5234 53.0799 62.0425 50.911 64.496 46.8045L70.4227 36.5199L73.5604 31.1161L83.1477 47.5018H70.4227L67.285 53.0799ZM53.5141 47.5018H44.9726L57.6977 25.538L64.1473 36.5199L59.875 43.9675C58.2457 46.6319 56.3882 47.5018 53.5141 47.5018Z" fill="#00DC82"/>
</svg>
