<svg width="225" height="82" viewBox="0 0 225 82" fill="none" xmlns="http://www.w3.org/2000/svg">
<rect x="0.0913086" y="0.825073" width="224.091" height="80.6084" rx="40.3042" fill="white"/>
<path d="M95.2717 50V31.2402H101.61C103.082 31.2402 104.285 31.5059 105.219 32.0372C106.16 32.5623 106.856 33.2738 107.308 34.1714C107.76 35.0691 107.986 36.0706 107.986 37.1759C107.986 38.2813 107.76 39.2858 107.308 40.1896C106.862 41.0934 106.172 41.814 105.238 42.3514C104.303 42.8826 103.107 43.1483 101.647 43.1483H97.1037V41.1331H101.574C102.581 41.1331 103.391 40.959 104.001 40.611C104.612 40.2629 105.055 39.7927 105.329 39.2003C105.61 38.6019 105.751 37.9271 105.751 37.1759C105.751 36.4248 105.61 35.7531 105.329 35.1607C105.055 34.5684 104.609 34.1043 103.992 33.7684C103.375 33.4264 102.557 33.2554 101.537 33.2554H97.5434V50H95.2717ZM112.744 55.2762C112.378 55.2762 112.051 55.2457 111.764 55.1846C111.477 55.1296 111.279 55.0747 111.169 55.0197L111.719 53.1144C112.244 53.2488 112.708 53.2976 113.111 53.261C113.514 53.2243 113.871 53.0442 114.183 52.7205C114.5 52.403 114.79 51.887 115.053 51.1725L115.456 50.0733L110.253 35.9302H112.598L116.482 47.1421H116.628L120.512 35.9302H122.857L116.885 52.0518C116.616 52.7785 116.283 53.3801 115.886 53.8564C115.489 54.3388 115.028 54.696 114.503 54.9281C113.984 55.1602 113.398 55.2762 112.744 55.2762ZM131.829 35.9302V37.7622H124.538V35.9302H131.829ZM126.663 32.5593H128.825V45.9696C128.825 46.5803 128.913 47.0383 129.091 47.3436C129.274 47.6428 129.506 47.8443 129.787 47.9482C130.074 48.0459 130.376 48.0947 130.694 48.0947C130.932 48.0947 131.127 48.0825 131.28 48.0581C131.432 48.0275 131.555 48.0031 131.646 47.9848L132.086 49.9267C131.939 49.9817 131.735 50.0366 131.472 50.0916C131.21 50.1527 130.877 50.1832 130.474 50.1832C129.863 50.1832 129.265 50.0519 128.678 49.7893C128.098 49.5267 127.616 49.1267 127.231 48.5894C126.852 48.052 126.663 47.3741 126.663 46.5558V32.5593ZM137.545 41.5361V50H135.384V31.2402H137.545V38.1286H137.728C138.058 37.4019 138.553 36.8248 139.212 36.3973C139.878 35.9638 140.764 35.747 141.869 35.747C142.828 35.747 143.667 35.9393 144.388 36.3241C145.108 36.7027 145.667 37.2859 146.064 38.0736C146.467 38.8553 146.669 39.8507 146.669 41.0598V50H144.507V41.2064C144.507 40.0888 144.217 39.2247 143.637 38.6141C143.063 37.9973 142.266 37.6889 141.246 37.6889C140.538 37.6889 139.902 37.8385 139.341 38.1377C138.785 38.437 138.345 38.8736 138.022 39.4476C137.704 40.0217 137.545 40.7178 137.545 41.5361ZM156.339 50.2931C155.069 50.2931 153.955 49.9908 152.996 49.3863C152.043 48.7817 151.298 47.9359 150.761 46.8489C150.23 45.762 149.964 44.4918 149.964 43.0384C149.964 41.5728 150.23 40.2934 150.761 39.2003C151.298 38.1072 152.043 37.2584 152.996 36.6538C153.955 36.0493 155.069 35.747 156.339 35.747C157.61 35.747 158.721 36.0493 159.674 36.6538C160.632 37.2584 161.377 38.1072 161.909 39.2003C162.446 40.2934 162.715 41.5728 162.715 43.0384C162.715 44.4918 162.446 45.762 161.909 46.8489C161.377 47.9359 160.632 48.7817 159.674 49.3863C158.721 49.9908 157.61 50.2931 156.339 50.2931ZM156.339 48.3512C157.304 48.3512 158.098 48.1039 158.721 47.6092C159.344 47.1146 159.805 46.4642 160.104 45.6581C160.403 44.8521 160.553 43.9788 160.553 43.0384C160.553 42.0979 160.403 41.2216 160.104 40.4094C159.805 39.5972 159.344 38.9408 158.721 38.44C158.098 37.9393 157.304 37.6889 156.339 37.6889C155.375 37.6889 154.581 37.9393 153.958 38.44C153.335 38.9408 152.874 39.5972 152.575 40.4094C152.275 41.2216 152.126 42.0979 152.126 43.0384C152.126 43.9788 152.275 44.8521 152.575 45.6581C152.874 46.4642 153.335 47.1146 153.958 47.6092C154.581 48.1039 155.375 48.3512 156.339 48.3512ZM168.176 41.5361V50H166.015V35.9302H168.103V38.1286H168.286C168.616 37.4141 169.117 36.8401 169.789 36.4065C170.46 35.9668 171.328 35.747 172.39 35.747C173.343 35.747 174.176 35.9424 174.891 36.3332C175.605 36.7179 176.161 37.3042 176.558 38.0919C176.955 38.8736 177.153 39.8629 177.153 41.0598V50H174.992V41.2064C174.992 40.101 174.705 39.24 174.13 38.6232C173.556 38.0003 172.769 37.6889 171.767 37.6889C171.077 37.6889 170.46 37.8385 169.917 38.1377C169.379 38.437 168.955 38.8736 168.644 39.4476C168.332 40.0217 168.176 40.7178 168.176 41.5361Z" fill="black"/>
<g clip-path="url(#clip0_6_2)">
<path d="M47.9884 14.0004C45.8193 14.0105 43.7479 14.1955 41.9253 14.518C36.5561 15.4666 35.5813 17.452 35.5813 21.1134V25.9491H48.2693V27.561H35.5813H30.8195C27.132 27.561 23.9032 29.7774 22.8932 33.9937C21.7282 38.8267 21.6766 41.8425 22.8932 46.8888C23.7951 50.6451 25.949 53.3216 29.6365 53.3216H33.999V47.5247C33.999 43.3368 37.6224 39.6427 41.9253 39.6427H54.5986C58.1264 39.6427 60.9426 36.7381 60.9426 33.1952V21.1134C60.9426 17.6749 58.0418 15.0919 54.5986 14.518C52.4189 14.1552 50.1574 13.9904 47.9884 14.0004ZM41.1267 17.8897C42.4373 17.8897 43.5076 18.9774 43.5076 20.3149C43.5076 21.6476 42.4373 22.7253 41.1267 22.7253C39.8115 22.7253 38.7459 21.6476 38.7459 20.3149C38.7459 18.9774 39.8115 17.8897 41.1267 17.8897Z" fill="url(#paint0_linear_6_2)"/>
<path d="M62.5249 27.561V33.1952C62.5249 37.5634 58.8216 41.2399 54.5986 41.2399H41.9253C38.4539 41.2399 35.5813 44.211 35.5813 47.6874V59.7692C35.5813 63.2077 38.5713 65.2302 41.9253 66.2167C45.9417 67.3977 49.7931 67.6111 54.5986 66.2167C57.7929 65.2919 60.9426 63.4306 60.9426 59.7692V54.9335H48.2694V53.3216H60.9426H67.2867C70.9742 53.3216 72.3483 50.7495 73.6307 46.8889C74.9554 42.9144 74.899 39.0923 73.6307 33.9938C72.7194 30.3229 70.9789 27.561 67.2867 27.561H62.5249ZM55.3971 58.1573C56.7124 58.1573 57.778 59.235 57.778 60.5677C57.778 61.9052 56.7124 62.993 55.3971 62.993C54.0866 62.993 53.0163 61.9052 53.0163 60.5677C53.0163 59.235 54.0866 58.1573 55.3971 58.1573Z" fill="url(#paint1_linear_6_2)"/>
</g>
<defs>
<linearGradient id="paint0_linear_6_2" x1="22" y1="14" x2="51.2573" y2="38.9313" gradientUnits="userSpaceOnUse">
<stop stop-color="#5A9FD4"/>
<stop offset="1" stop-color="#306998"/>
</linearGradient>
<linearGradient id="paint1_linear_6_2" x1="55.0922" y1="60.1612" x2="44.5958" y2="45.4526" gradientUnits="userSpaceOnUse">
<stop stop-color="#FFD43B"/>
<stop offset="1" stop-color="#FFE873"/>
</linearGradient>
<clipPath id="clip0_6_2">
<rect width="53" height="53.4732" fill="white" transform="translate(22 14)"/>
</clipPath>
</defs>
</svg>
