<svg width="225" height="82" viewBox="0 0 225 82" fill="none" xmlns="http://www.w3.org/2000/svg">
<rect x="0.0913086" y="0.825073" width="224.091" height="80.6084" rx="40.3042" fill="url(#paint0_linear_6_2)"/>
<path d="M99.2717 50V31.2402H105.61C107.082 31.2402 108.285 31.5059 109.219 32.0372C110.16 32.5623 110.856 33.2738 111.308 34.1714C111.76 35.0691 111.986 36.0706 111.986 37.1759C111.986 38.2813 111.76 39.2858 111.308 40.1896C110.862 41.0934 110.172 41.814 109.238 42.3514C108.303 42.8826 107.107 43.1483 105.647 43.1483H101.104V41.1331H105.574C106.581 41.1331 107.391 40.959 108.001 40.611C108.612 40.2629 109.055 39.7927 109.329 39.2003C109.61 38.6019 109.751 37.9271 109.751 37.1759C109.751 36.4248 109.61 35.7531 109.329 35.1607C109.055 34.5684 108.609 34.1043 107.992 33.7684C107.375 33.4264 106.557 33.2554 105.537 33.2554H101.543V50H99.2717ZM116.744 55.2762C116.378 55.2762 116.051 55.2457 115.764 55.1846C115.477 55.1296 115.279 55.0747 115.169 55.0197L115.719 53.1144C116.244 53.2488 116.708 53.2976 117.111 53.261C117.514 53.2243 117.871 53.0442 118.183 52.7205C118.5 52.403 118.79 51.887 119.053 51.1725L119.456 50.0733L114.253 35.9302H116.598L120.482 47.1421H120.628L124.512 35.9302H126.857L120.885 52.0518C120.616 52.7785 120.283 53.3801 119.886 53.8564C119.489 54.3388 119.028 54.696 118.503 54.9281C117.984 55.1602 117.398 55.2762 116.744 55.2762ZM135.829 35.9302V37.7622H128.538V35.9302H135.829ZM130.663 32.5593H132.825V45.9696C132.825 46.5803 132.913 47.0383 133.091 47.3436C133.274 47.6428 133.506 47.8443 133.787 47.9482C134.074 48.0459 134.376 48.0947 134.694 48.0947C134.932 48.0947 135.127 48.0825 135.28 48.0581C135.432 48.0275 135.555 48.0031 135.646 47.9848L136.086 49.9267C135.939 49.9817 135.735 50.0366 135.472 50.0916C135.21 50.1527 134.877 50.1832 134.474 50.1832C133.863 50.1832 133.265 50.0519 132.678 49.7893C132.098 49.5267 131.616 49.1267 131.231 48.5894C130.852 48.052 130.663 47.3741 130.663 46.5558V32.5593ZM141.545 41.5361V50H139.384V31.2402H141.545V38.1286H141.728C142.058 37.4019 142.553 36.8248 143.212 36.3973C143.878 35.9638 144.764 35.747 145.869 35.747C146.828 35.747 147.667 35.9393 148.388 36.3241C149.108 36.7027 149.667 37.2859 150.064 38.0736C150.467 38.8553 150.669 39.8507 150.669 41.0598V50H148.507V41.2064C148.507 40.0888 148.217 39.2247 147.637 38.6141C147.063 37.9973 146.266 37.6889 145.246 37.6889C144.538 37.6889 143.902 37.8385 143.341 38.1377C142.785 38.437 142.345 38.8736 142.022 39.4476C141.704 40.0217 141.545 40.7178 141.545 41.5361ZM160.339 50.2931C159.069 50.2931 157.955 49.9908 156.996 49.3863C156.043 48.7817 155.298 47.9359 154.761 46.8489C154.23 45.762 153.964 44.4918 153.964 43.0384C153.964 41.5728 154.23 40.2934 154.761 39.2003C155.298 38.1072 156.043 37.2584 156.996 36.6538C157.955 36.0493 159.069 35.747 160.339 35.747C161.61 35.747 162.721 36.0493 163.674 36.6538C164.632 37.2584 165.377 38.1072 165.909 39.2003C166.446 40.2934 166.715 41.5728 166.715 43.0384C166.715 44.4918 166.446 45.762 165.909 46.8489C165.377 47.9359 164.632 48.7817 163.674 49.3863C162.721 49.9908 161.61 50.2931 160.339 50.2931ZM160.339 48.3512C161.304 48.3512 162.098 48.1039 162.721 47.6092C163.344 47.1146 163.805 46.4642 164.104 45.6581C164.403 44.8521 164.553 43.9788 164.553 43.0384C164.553 42.0979 164.403 41.2216 164.104 40.4094C163.805 39.5972 163.344 38.9408 162.721 38.44C162.098 37.9393 161.304 37.6889 160.339 37.6889C159.375 37.6889 158.581 37.9393 157.958 38.44C157.335 38.9408 156.874 39.5972 156.575 40.4094C156.275 41.2216 156.126 42.0979 156.126 43.0384C156.126 43.9788 156.275 44.8521 156.575 45.6581C156.874 46.4642 157.335 47.1146 157.958 47.6092C158.581 48.1039 159.375 48.3512 160.339 48.3512ZM172.176 41.5361V50H170.015V35.9302H172.103V38.1286H172.286C172.616 37.4141 173.117 36.8401 173.789 36.4065C174.46 35.9668 175.328 35.747 176.39 35.747C177.343 35.747 178.176 35.9424 178.891 36.3332C179.605 36.7179 180.161 37.3042 180.558 38.0919C180.955 38.8736 181.153 39.8629 181.153 41.0598V50H178.992V41.2064C178.992 40.101 178.705 39.24 178.13 38.6232C177.556 38.0003 176.769 37.6889 175.767 37.6889C175.077 37.6889 174.46 37.8385 173.917 38.1377C173.379 38.437 172.955 38.8736 172.644 39.4476C172.332 40.0217 172.176 40.7178 172.176 41.5361Z" fill="white"/>
<g clip-path="url(#clip0_6_2)">
<path d="M42.0123 15.0104L42.0124 15.0104C43.8046 14.6932 45.8475 14.5104 47.9907 14.5004C50.1337 14.4905 52.3669 14.6534 54.5164 15.0112C57.7965 15.5579 60.4426 17.9907 60.4426 21.1134V33.1952C60.4426 36.4718 57.8405 39.1427 54.5986 39.1427H41.9253C37.3452 39.1427 33.499 43.0617 33.499 47.5247V52.8216H29.6365C27.9276 52.8216 26.5962 52.2069 25.578 51.1645C24.5485 50.1105 23.817 48.5947 23.3794 46.7721L23.3793 46.7716C22.7767 44.2724 22.4938 42.2988 22.5001 40.3629C22.5064 38.4268 22.802 36.5059 23.3793 34.1109L23.3795 34.1102C24.3339 30.1256 27.3562 28.061 30.8195 28.061H35.5813H48.2693H48.7693V27.561V25.9491V25.4491H48.2693H36.0813V21.1134C36.0813 19.3093 36.3266 18.0534 37.1203 17.1229C37.9199 16.1853 39.3618 15.4786 42.0123 15.0104ZM44.0076 20.3149C44.0076 18.7097 42.7218 17.3897 41.1267 17.3897C39.5263 17.3897 38.2459 18.7103 38.2459 20.3149C38.2459 21.9181 39.5297 23.2253 41.1267 23.2253C42.7185 23.2253 44.0076 21.9187 44.0076 20.3149Z" fill="url(#paint1_linear_6_2)" stroke="black"/>
<path d="M54.4595 65.7365L54.4593 65.7365C49.7526 67.1022 45.9988 66.8933 42.0664 65.737C38.7536 64.7627 36.0813 62.8478 36.0813 59.7692V47.6874C36.0813 44.4768 38.7402 41.7399 41.9253 41.7399H54.5986C59.1014 41.7399 63.0249 37.8358 63.0249 33.1952V28.061H67.2867C68.988 28.061 70.2097 28.6888 71.126 29.731C72.0602 30.7934 72.6981 32.3123 73.1454 34.1143L73.1455 34.1145C74.3985 39.1515 74.4424 42.8722 73.1563 46.7308L73.1562 46.7313C72.5157 48.6594 71.8761 50.1832 70.9809 51.2276C70.1144 52.2386 68.9895 52.8216 67.2867 52.8216H60.9426H48.2694H47.7694V53.3216V54.9335V55.4335H48.2694H60.4426V59.7692C60.4426 61.4345 59.7345 62.6843 58.6392 63.6429C57.5295 64.6141 56.0213 65.2843 54.4595 65.7365ZM58.278 60.5677C58.278 58.9646 56.9942 57.6573 55.3971 57.6573C53.8054 57.6573 52.5163 58.9639 52.5163 60.5677C52.5163 62.1729 53.8021 63.493 55.3971 63.493C56.9975 63.493 58.278 62.1723 58.278 60.5677Z" fill="url(#paint2_linear_6_2)" stroke="black"/>
</g>
<defs>
<linearGradient id="paint0_linear_6_2" x1="75" y1="22" x2="70" y2="23.5" gradientUnits="userSpaceOnUse">
<stop offset="0.0405319" stop-color="#4482B4"/>
<stop offset="0.07" stop-color="#FFE05C"/>
</linearGradient>
<linearGradient id="paint1_linear_6_2" x1="22" y1="14" x2="51.2573" y2="38.9313" gradientUnits="userSpaceOnUse">
<stop stop-color="#5A9FD4"/>
<stop offset="1" stop-color="#306998"/>
</linearGradient>
<linearGradient id="paint2_linear_6_2" x1="55.0922" y1="60.1612" x2="44.5958" y2="45.4526" gradientUnits="userSpaceOnUse">
<stop stop-color="#FFD43B"/>
<stop offset="1" stop-color="#FFE873"/>
</linearGradient>
<clipPath id="clip0_6_2">
<rect width="53" height="53.4732" fill="white" transform="translate(22 14)"/>
</clipPath>
</defs>
</svg>
