<svg width="225" height="81" viewBox="0 0 225 81" fill="none" xmlns="http://www.w3.org/2000/svg">
<rect x="0.0913086" y="0.216736" width="224.091" height="80.6084" rx="40.3042" fill="#0EA5E9"/>
<path d="M71.3371 32.4722V30.457H85.4069V32.4722H79.5078V49.2167H77.2361V32.4722H71.3371ZM90.8457 49.5465C89.9541 49.5465 89.145 49.3786 88.4183 49.0427C87.6916 48.7007 87.1145 48.2091 86.687 47.5679C86.2595 46.9206 86.0458 46.139 86.0458 45.223C86.0458 44.4169 86.2046 43.7635 86.5221 43.2627C86.8397 42.7559 87.2641 42.3589 87.7954 42.0719C88.3267 41.7849 88.9129 41.5712 89.5541 41.4307C90.2014 41.2841 90.8518 41.1681 91.5052 41.0826C92.3601 40.9727 93.0532 40.8903 93.5845 40.8353C94.1219 40.7742 94.5127 40.6735 94.757 40.533C95.0074 40.3926 95.1326 40.1483 95.1326 39.8002V39.7269C95.1326 38.8231 94.8853 38.1209 94.3906 37.6201C93.9021 37.1194 93.1601 36.869 92.1647 36.869C91.1327 36.869 90.3236 37.0949 89.7373 37.5468C89.1511 37.9987 88.7389 38.4812 88.5007 38.9941L86.4489 38.2613C86.8153 37.4064 87.3038 36.7408 87.9145 36.2644C88.5312 35.782 89.203 35.4461 89.9297 35.2568C90.6625 35.0614 91.3831 34.9637 92.0914 34.9637C92.5433 34.9637 93.0624 35.0187 93.6486 35.1286C94.241 35.2324 94.812 35.4492 95.3616 35.779C95.9173 36.1087 96.3783 36.6064 96.7447 37.272C97.1111 37.9377 97.2943 38.8292 97.2943 39.9468V49.2167H95.1326V47.3114H95.0227C94.8761 47.6168 94.6318 47.9435 94.2898 48.2916C93.9479 48.6397 93.4929 48.9358 92.925 49.1801C92.3571 49.4244 91.664 49.5465 90.8457 49.5465ZM91.1754 47.6046C92.0304 47.6046 92.751 47.4366 93.3372 47.1008C93.9296 46.7649 94.3753 46.3313 94.6746 45.8C94.9799 45.2688 95.1326 44.71 95.1326 44.1238V42.1452C95.041 42.2551 94.8395 42.3559 94.528 42.4475C94.2227 42.533 93.8685 42.6093 93.4654 42.6765C93.0685 42.7375 92.6807 42.7925 92.3021 42.8413C91.9296 42.8841 91.6273 42.9207 91.3953 42.9513C90.8335 43.0245 90.3083 43.1436 89.8197 43.3085C89.3373 43.4673 88.9465 43.7085 88.6473 44.0322C88.3541 44.3497 88.2076 44.7833 88.2076 45.3329C88.2076 46.084 88.4854 46.6519 89.0411 47.0366C89.603 47.4153 90.3144 47.6046 91.1754 47.6046ZM101.24 49.2167V35.1469H103.402V49.2167H101.24ZM102.339 32.8019C101.918 32.8019 101.555 32.6584 101.249 32.3714C100.95 32.0844 100.8 31.7394 100.8 31.3363C100.8 30.9333 100.95 30.5883 101.249 30.3012C101.555 30.0142 101.918 29.8707 102.339 29.8707C102.761 29.8707 103.121 30.0142 103.42 30.3012C103.725 30.5883 103.878 30.9333 103.878 31.3363C103.878 31.7394 103.725 32.0844 103.42 32.3714C103.121 32.6584 102.761 32.8019 102.339 32.8019ZM109.523 30.457V49.2167H107.361V30.457H109.523ZM116.67 49.2167L112.383 35.1469H114.655L117.696 45.9191H117.843L120.847 35.1469H123.155L126.123 45.8825H126.27L129.311 35.1469H131.583L127.296 49.2167H125.171L122.093 38.4079H121.873L118.795 49.2167H116.67ZM134.441 49.2167V35.1469H136.602V49.2167H134.441ZM135.54 32.8019C135.118 32.8019 134.755 32.6584 134.45 32.3714C134.151 32.0844 134.001 31.7394 134.001 31.3363C134.001 30.9333 134.151 30.5883 134.45 30.3012C134.755 30.0142 135.118 29.8707 135.54 29.8707C135.961 29.8707 136.321 30.0142 136.621 30.3012C136.926 30.5883 137.079 30.9333 137.079 31.3363C137.079 31.7394 136.926 32.0844 136.621 32.3714C136.321 32.6584 135.961 32.8019 135.54 32.8019ZM142.724 40.7529V49.2167H140.562V35.1469H142.65V37.3453H142.833C143.163 36.6308 143.664 36.0568 144.336 35.6232C145.007 35.1836 145.875 34.9637 146.937 34.9637C147.89 34.9637 148.723 35.1591 149.438 35.55C150.152 35.9347 150.708 36.5209 151.105 37.3087C151.502 38.0903 151.7 39.0796 151.7 40.2765V49.2167H149.539V40.4231C149.539 39.3178 149.252 38.4567 148.678 37.84C148.104 37.2171 147.316 36.9056 146.314 36.9056C145.624 36.9056 145.007 37.0553 144.464 37.3545C143.927 37.6537 143.502 38.0903 143.191 38.6644C142.879 39.2384 142.724 39.9346 142.724 40.7529ZM160.964 49.5099C159.791 49.5099 158.756 49.2137 157.858 48.6213C156.961 48.0229 156.258 47.1802 155.751 46.0932C155.245 45.0001 154.991 43.7085 154.991 42.2185C154.991 40.7406 155.245 39.4582 155.751 38.3712C156.258 37.2843 156.964 36.4446 157.867 35.8522C158.771 35.2599 159.815 34.9637 161 34.9637C161.916 34.9637 162.64 35.1164 163.171 35.4217C163.708 35.7209 164.118 36.0629 164.399 36.4476C164.686 36.8263 164.908 37.1377 165.067 37.382H165.25V30.457H167.412V49.2167H165.324V47.055H165.067C164.908 47.3114 164.682 47.6351 164.389 48.0259C164.096 48.4107 163.678 48.7557 163.134 49.061C162.591 49.3602 161.867 49.5099 160.964 49.5099ZM161.257 47.5679C162.124 47.5679 162.857 47.342 163.455 46.8901C164.053 46.4321 164.508 45.8 164.82 44.994C165.131 44.1818 165.287 43.2444 165.287 42.1818C165.287 41.1315 165.134 40.2124 164.829 39.4247C164.524 38.6308 164.072 38.014 163.473 37.5743C162.875 37.1285 162.136 36.9056 161.257 36.9056C160.341 36.9056 159.577 37.1407 158.967 37.611C158.362 38.0751 157.907 38.7071 157.602 39.5071C157.303 40.301 157.153 41.1925 157.153 42.1818C157.153 43.1833 157.306 44.0932 157.611 44.9115C157.922 45.7237 158.38 46.371 158.985 46.8534C159.596 47.3298 160.353 47.5679 161.257 47.5679ZM177.387 49.5099C176.068 49.5099 174.933 49.1984 173.98 48.5755C173.027 47.9527 172.294 47.0947 171.782 46.0016C171.269 44.9085 171.012 43.6596 171.012 42.2551C171.012 40.8261 171.275 39.5651 171.8 38.472C172.331 37.3728 173.07 36.5148 174.017 35.898C174.969 35.2752 176.081 34.9637 177.351 34.9637C178.34 34.9637 179.232 35.1469 180.026 35.5133C180.819 35.8797 181.47 36.3927 181.977 37.0522C182.483 37.7117 182.798 38.4812 182.92 39.3605H180.758C180.593 38.7193 180.227 38.1514 179.659 37.6568C179.097 37.156 178.34 36.9056 177.387 36.9056C176.545 36.9056 175.806 37.1255 175.171 37.5652C174.542 37.9987 174.05 38.6125 173.696 39.4063C173.348 40.1941 173.174 41.1193 173.174 42.1818C173.174 43.2688 173.345 44.2154 173.687 45.0214C174.035 45.8275 174.523 46.4535 175.152 46.8992C175.788 47.345 176.533 47.5679 177.387 47.5679C177.949 47.5679 178.459 47.4702 178.917 47.2748C179.375 47.0794 179.763 46.7985 180.081 46.4321C180.398 46.0657 180.624 45.626 180.758 45.113H182.92C182.798 45.9435 182.496 46.6916 182.013 47.3572C181.537 48.0168 180.905 48.5419 180.117 48.9328C179.335 49.3175 178.426 49.5099 177.387 49.5099ZM196.046 38.298L194.105 38.8476C193.982 38.5239 193.802 38.2094 193.564 37.9041C193.332 37.5926 193.014 37.3362 192.611 37.1346C192.208 36.9331 191.692 36.8324 191.063 36.8324C190.202 36.8324 189.485 37.0308 188.911 37.4278C188.343 37.8186 188.059 38.3163 188.059 38.9208C188.059 39.4582 188.254 39.8827 188.645 40.1941C189.036 40.5055 189.647 40.7651 190.477 40.9727L192.566 41.4857C193.824 41.791 194.761 42.2582 195.378 42.8871C195.995 43.51 196.303 44.3131 196.303 45.2962C196.303 46.1023 196.071 46.8229 195.607 47.458C195.149 48.0931 194.508 48.5939 193.683 48.9603C192.859 49.3267 191.9 49.5099 190.807 49.5099C189.372 49.5099 188.184 49.1984 187.244 48.5755C186.303 47.9527 185.708 47.0428 185.457 45.8458L187.509 45.3329C187.705 46.0901 188.074 46.658 188.618 47.0366C189.167 47.4153 189.885 47.6046 190.77 47.6046C191.778 47.6046 192.578 47.3908 193.17 46.9634C193.769 46.5298 194.068 46.0107 194.068 45.4062C194.068 44.9176 193.897 44.5085 193.555 44.1787C193.213 43.8428 192.688 43.5925 191.979 43.4276L189.634 42.878C188.346 42.5727 187.399 42.0994 186.795 41.4582C186.196 40.8109 185.897 40.0017 185.897 39.0308C185.897 38.2369 186.12 37.5346 186.566 36.924C187.018 36.3133 187.631 35.8339 188.407 35.4858C189.189 35.1378 190.074 34.9637 191.063 34.9637C192.456 34.9637 193.549 35.269 194.343 35.8797C195.143 36.4904 195.711 37.2965 196.046 38.298ZM209.523 38.298L207.581 38.8476C207.459 38.5239 207.279 38.2094 207.041 37.9041C206.809 37.5926 206.491 37.3362 206.088 37.1346C205.685 36.9331 205.169 36.8324 204.54 36.8324C203.679 36.8324 202.962 37.0308 202.387 37.4278C201.82 37.8186 201.536 38.3163 201.536 38.9208C201.536 39.4582 201.731 39.8827 202.122 40.1941C202.513 40.5055 203.123 40.7651 203.954 40.9727L206.042 41.4857C207.3 41.791 208.238 42.2582 208.854 42.8871C209.471 43.51 209.78 44.3131 209.78 45.2962C209.78 46.1023 209.548 46.8229 209.083 47.458C208.625 48.0931 207.984 48.5939 207.16 48.9603C206.335 49.3267 205.377 49.5099 204.284 49.5099C202.849 49.5099 201.661 49.1984 200.72 48.5755C199.78 47.9527 199.185 47.0428 198.934 45.8458L200.986 45.3329C201.181 46.0901 201.551 46.658 202.094 47.0366C202.644 47.4153 203.362 47.6046 204.247 47.6046C205.255 47.6046 206.055 47.3908 206.647 46.9634C207.245 46.5298 207.545 46.0107 207.545 45.4062C207.545 44.9176 207.374 44.5085 207.032 44.1787C206.69 43.8428 206.164 43.5925 205.456 43.4276L203.111 42.878C201.823 42.5727 200.876 42.0994 200.272 41.4582C199.673 40.8109 199.374 40.0017 199.374 39.0308C199.374 38.2369 199.597 37.5346 200.043 36.924C200.494 36.3133 201.108 35.8339 201.884 35.4858C202.665 35.1378 203.551 34.9637 204.54 34.9637C205.932 34.9637 207.026 35.269 207.819 35.8797C208.619 36.4904 209.187 37.2965 209.523 38.298Z" fill="white"/>
<path fill-rule="evenodd" clip-rule="evenodd" d="M43.4565 27.3479C37.1371 27.3479 33.1874 30.2639 31.6076 36.0959C33.9774 33.1799 36.7421 32.0864 39.9018 32.8154C41.7046 33.2309 42.9931 34.4386 44.4193 35.7743C46.7426 37.9508 49.4319 40.4699 55.3054 40.4699C61.6249 40.4699 65.5745 37.5539 67.1543 31.7219C64.7846 34.6379 62.0198 35.7314 58.8601 35.0024C57.0573 34.5869 55.7689 33.3792 54.3426 32.0435C52.0193 29.867 49.3301 27.3479 43.4565 27.3479ZM31.6076 40.4699C25.2882 40.4699 21.3385 43.3859 19.7587 49.2179C22.1285 46.3019 24.8932 45.2084 28.0529 45.9374C29.8557 46.3537 31.1442 47.5606 32.5704 48.8963C34.8937 51.0728 37.583 53.5919 43.4565 53.5919C49.7759 53.5919 53.7256 50.6759 55.3054 44.8439C52.9356 47.7599 50.1709 48.8534 47.0112 48.1244C45.2084 47.7089 43.9199 46.5012 42.4937 45.1655C40.1704 42.989 37.4811 40.4699 31.6076 40.4699Z" fill="white"/>
</svg>
