<svg width="225" height="81" viewBox="0 0 225 81" fill="none" xmlns="http://www.w3.org/2000/svg">
<rect x="0.0913086" width="224.091" height="80.6084" rx="40.3042" fill="#2F72BC"/>
<path d="M71.4663 33.244V31.2288H85.5362V33.244H79.6371V49.9886H77.3654V33.244H71.4663ZM88.5292 55.2648C88.1628 55.2648 87.8361 55.2342 87.5491 55.1732C87.2621 55.1182 87.0636 55.0632 86.9537 55.0083L87.5033 53.103C88.0285 53.2373 88.4926 53.2862 88.8956 53.2496C89.2987 53.2129 89.6559 53.0328 89.9673 52.7091C90.2849 52.3916 90.575 51.8756 90.8375 51.1611L91.2406 50.0619L86.0377 35.9188H88.3827L92.2665 47.1307H92.4131L96.2969 35.9188H98.6419L92.6696 52.0404C92.4009 52.7671 92.068 53.3686 91.6711 53.845C91.2742 54.3274 90.8131 54.6846 90.2879 54.9167C89.7689 55.1487 89.1826 55.2648 88.5292 55.2648ZM101.495 55.2648V35.9188H103.584V38.1538H103.84C103.999 37.9095 104.219 37.5981 104.5 37.2195C104.787 36.8348 105.196 36.4928 105.727 36.1936C106.265 35.8882 106.991 35.7356 107.907 35.7356C109.092 35.7356 110.136 36.0317 111.04 36.6241C111.944 37.2164 112.649 38.0561 113.156 39.1431C113.663 40.2301 113.916 41.5125 113.916 42.9903C113.916 44.4803 113.663 45.7719 113.156 46.865C112.649 47.952 111.947 48.7947 111.049 49.3932C110.151 49.9855 109.116 50.2817 107.944 50.2817C107.04 50.2817 106.316 50.1321 105.773 49.8329C105.229 49.5275 104.811 49.1825 104.518 48.7978C104.225 48.407 103.999 48.0833 103.84 47.8268H103.657V55.2648H101.495ZM103.62 42.9537C103.62 44.0162 103.776 44.9536 104.088 45.7658C104.399 46.5719 104.854 47.2039 105.452 47.6619C106.051 48.1138 106.784 48.3398 107.651 48.3398C108.555 48.3398 109.309 48.1016 109.913 47.6253C110.524 47.1429 110.982 46.4956 111.287 45.6834C111.599 44.8651 111.755 43.9552 111.755 42.9537C111.755 41.9644 111.602 41.0728 111.296 40.2789C110.997 39.479 110.542 38.8469 109.932 38.3828C109.327 37.9126 108.567 37.6775 107.651 37.6775C106.771 37.6775 106.033 37.9004 105.434 38.3462C104.836 38.7859 104.384 39.4026 104.078 40.1965C103.773 40.9843 103.62 41.9033 103.62 42.9537ZM123.113 50.2817C121.757 50.2817 120.588 49.9825 119.605 49.384C118.628 48.7795 117.873 47.9367 117.342 46.8559C116.817 45.7689 116.554 44.5048 116.554 43.0636C116.554 41.6224 116.817 40.3522 117.342 39.253C117.873 38.1477 118.612 37.2867 119.559 36.6699C120.512 36.047 121.623 35.7356 122.893 35.7356C123.626 35.7356 124.35 35.8577 125.064 36.102C125.779 36.3462 126.429 36.7432 127.015 37.2928C127.601 37.8363 128.069 38.5569 128.417 39.4545C128.765 40.3522 128.939 41.4575 128.939 42.7705V43.6865H118.093V41.8178H126.74C126.74 41.024 126.582 40.3156 126.264 39.6927C125.953 39.0698 125.507 38.5782 124.927 38.2179C124.353 37.8576 123.675 37.6775 122.893 37.6775C122.032 37.6775 121.287 37.8912 120.658 38.3187C120.035 38.7401 119.556 39.2897 119.22 39.9675C118.884 40.6453 118.716 41.372 118.716 42.1476V43.3934C118.716 44.4559 118.899 45.3567 119.266 46.0956C119.638 46.8284 120.154 47.3871 120.814 47.7719C121.473 48.1505 122.24 48.3398 123.113 48.3398C123.681 48.3398 124.194 48.2604 124.652 48.1016C125.116 47.9367 125.516 47.6925 125.852 47.3688C126.188 47.0391 126.447 46.6299 126.63 46.1414L128.719 46.7276C128.499 47.436 128.13 48.0589 127.611 48.5963C127.091 49.1275 126.45 49.5428 125.687 49.842C124.924 50.1351 124.066 50.2817 123.113 50.2817ZM142.193 39.0698L140.251 39.6194C140.129 39.2958 139.949 38.9813 139.711 38.6759C139.479 38.3645 139.161 38.108 138.758 37.9065C138.355 37.705 137.839 37.6042 137.21 37.6042C136.349 37.6042 135.632 37.8027 135.058 38.1996C134.49 38.5904 134.206 39.0881 134.206 39.6927C134.206 40.2301 134.401 40.6545 134.792 40.9659C135.183 41.2774 135.794 41.5369 136.624 41.7445L138.713 42.2575C139.97 42.5628 140.908 43.03 141.525 43.659C142.141 44.2819 142.45 45.0849 142.45 46.0681C142.45 46.8742 142.218 47.5948 141.754 48.2299C141.296 48.865 140.654 49.3657 139.83 49.7321C139.006 50.0985 138.047 50.2817 136.954 50.2817C135.519 50.2817 134.331 49.9703 133.391 49.3474C132.45 48.7245 131.855 47.8146 131.604 46.6177L133.656 46.1047C133.852 46.862 134.221 47.4299 134.765 47.8085C135.314 48.1871 136.032 48.3764 136.917 48.3764C137.925 48.3764 138.725 48.1627 139.317 47.7352C139.916 47.3016 140.215 46.7826 140.215 46.178C140.215 45.6895 140.044 45.2803 139.702 44.9506C139.36 44.6147 138.835 44.3643 138.126 44.1994L135.781 43.6498C134.493 43.3445 133.546 42.8712 132.942 42.23C132.343 41.5827 132.044 40.7736 132.044 39.8026C132.044 39.0087 132.267 38.3065 132.713 37.6958C133.165 37.0851 133.778 36.6058 134.554 36.2577C135.336 35.9096 136.221 35.7356 137.21 35.7356C138.603 35.7356 139.696 36.0409 140.49 36.6516C141.29 37.2622 141.857 38.0683 142.193 39.0698ZM151.42 50.2817C150.101 50.2817 148.965 49.9703 148.012 49.3474C147.06 48.7245 146.327 47.8665 145.814 46.7734C145.301 45.6803 145.044 44.4315 145.044 43.027C145.044 41.598 145.307 40.337 145.832 39.2439C146.363 38.1447 147.102 37.2867 148.049 36.6699C149.002 36.047 150.113 35.7356 151.383 35.7356C152.372 35.7356 153.264 35.9188 154.058 36.2852C154.852 36.6516 155.502 37.1645 156.009 37.8241C156.516 38.4836 156.83 39.253 156.952 40.1324H154.791C154.626 39.4912 154.259 38.9233 153.691 38.4286C153.13 37.9279 152.372 37.6775 151.42 37.6775C150.577 37.6775 149.838 37.8973 149.203 38.337C148.574 38.7706 148.082 39.3843 147.728 40.1782C147.38 40.9659 147.206 41.8911 147.206 42.9537C147.206 44.0407 147.377 44.9872 147.719 45.7933C148.067 46.5994 148.556 47.2253 149.185 47.6711C149.82 48.1169 150.565 48.3398 151.42 48.3398C151.982 48.3398 152.491 48.2421 152.949 48.0467C153.407 47.8512 153.795 47.5703 154.113 47.2039C154.43 46.8375 154.656 46.3978 154.791 45.8849H156.952C156.83 46.7154 156.528 47.4635 156.046 48.1291C155.569 48.7886 154.937 49.3138 154.149 49.7046C153.368 50.0893 152.458 50.2817 151.42 50.2817ZM160.113 49.9886V35.9188H162.201V38.0439H162.348C162.604 37.3477 163.068 36.7829 163.74 36.3493C164.412 35.9157 165.169 35.6989 166.012 35.6989C166.17 35.6989 166.369 35.702 166.607 35.7081C166.845 35.7142 167.025 35.7233 167.148 35.7356V37.934C167.074 37.9157 166.906 37.8882 166.644 37.8515C166.387 37.8088 166.116 37.7874 165.829 37.7874C165.145 37.7874 164.534 37.9309 163.997 38.2179C163.465 38.4988 163.044 38.8897 162.732 39.3904C162.427 39.8851 162.274 40.4499 162.274 41.085V49.9886H160.113ZM169.71 49.9886V35.9188H171.872V49.9886H169.71ZM170.809 33.5738C170.388 33.5738 170.025 33.4303 169.719 33.1433C169.42 32.8563 169.27 32.5112 169.27 32.1082C169.27 31.7051 169.42 31.3601 169.719 31.0731C170.025 30.7861 170.388 30.6426 170.809 30.6426C171.231 30.6426 171.591 30.7861 171.89 31.0731C172.196 31.3601 172.348 31.7051 172.348 32.1082C172.348 32.5112 172.196 32.8563 171.89 33.1433C171.591 33.4303 171.231 33.5738 170.809 33.5738ZM175.831 55.2648V35.9188H177.92V38.1538H178.176C178.335 37.9095 178.555 37.5981 178.836 37.2195C179.123 36.8348 179.532 36.4928 180.063 36.1936C180.601 35.8882 181.327 35.7356 182.243 35.7356C183.428 35.7356 184.472 36.0317 185.376 36.6241C186.28 37.2164 186.985 38.0561 187.492 39.1431C187.999 40.2301 188.252 41.5125 188.252 42.9903C188.252 44.4803 187.999 45.7719 187.492 46.865C186.985 47.952 186.283 48.7947 185.385 49.3932C184.488 49.9855 183.452 50.2817 182.28 50.2817C181.376 50.2817 180.653 50.1321 180.109 49.8329C179.566 49.5275 179.147 49.1825 178.854 48.7978C178.561 48.407 178.335 48.0833 178.176 47.8268H177.993V55.2648H175.831ZM177.956 42.9537C177.956 44.0162 178.112 44.9536 178.424 45.7658C178.735 46.5719 179.19 47.2039 179.788 47.6619C180.387 48.1138 181.12 48.3398 181.987 48.3398C182.891 48.3398 183.645 48.1016 184.249 47.6253C184.86 47.1429 185.318 46.4956 185.623 45.6834C185.935 44.8651 186.091 43.9552 186.091 42.9537C186.091 41.9644 185.938 41.0728 185.633 40.2789C185.333 39.479 184.878 38.8469 184.268 38.3828C183.663 37.9126 182.903 37.6775 181.987 37.6775C181.107 37.6775 180.369 37.9004 179.77 38.3462C179.172 38.7859 178.72 39.4026 178.414 40.1965C178.109 40.9843 177.956 41.9033 177.956 42.9537ZM197.669 35.9188V37.7508H190.377V35.9188H197.669ZM192.503 32.5479H194.664V45.9582C194.664 46.5688 194.753 47.0268 194.93 47.3322C195.113 47.6314 195.345 47.8329 195.626 47.9367C195.913 48.0344 196.215 48.0833 196.533 48.0833C196.771 48.0833 196.967 48.0711 197.119 48.0467C197.272 48.0161 197.394 47.9917 197.486 47.9734L197.925 49.9153C197.779 49.9703 197.574 50.0252 197.312 50.0802C197.049 50.1413 196.716 50.1718 196.313 50.1718C195.702 50.1718 195.104 50.0405 194.518 49.7779C193.938 49.5153 193.455 49.1153 193.07 48.5779C192.692 48.0406 192.503 47.3627 192.503 46.5444V32.5479Z" fill="white"/>
<rect x="24.2738" y="20.9582" width="37.8859" height="39.4981" rx="2.41825" fill="white"/>
<path d="M35.0689 40.8002H29.6262V37.9628H44.1486V40.8002H38.706V56.019H35.0689V40.8002ZM52.0162 56.3286C50.7781 56.3286 49.7377 56.191 48.8951 55.9159C48.0696 55.6407 47.3732 55.2624 46.8057 54.7809C46.2382 54.2994 45.6535 53.6545 45.0517 52.8463L47.5022 50.8085C48.2072 51.7887 48.8865 52.4852 49.5399 52.8979C50.2106 53.2934 51.036 53.4912 52.0162 53.4912C53.3747 53.4912 54.3635 53.2934 54.9826 52.8979C55.6017 52.5024 55.9112 51.8661 55.9112 50.9891C55.9112 50.542 55.7651 50.1808 55.4727 49.9057C55.1804 49.6134 54.6731 49.3468 53.9508 49.1061C53.2458 48.8653 52.1882 48.5988 50.7781 48.3064C49.1272 47.9625 47.8977 47.352 47.0894 46.475C46.2984 45.5808 45.9029 44.3942 45.9029 42.9153C45.9029 41.8492 46.1694 40.9206 46.7025 40.1295C47.2528 39.3385 48.0267 38.728 49.024 38.2981C50.0214 37.8682 51.1822 37.6532 52.5063 37.6532C54.226 37.6532 55.5931 37.9112 56.6077 38.4271C57.6223 38.9258 58.4477 39.6652 59.084 40.6454L56.6851 42.6058C56.152 42.0727 55.7049 41.6686 55.3437 41.3935C54.9998 41.1011 54.6043 40.8776 54.1572 40.7228C53.7101 40.568 53.1598 40.4906 52.5063 40.4906C51.5261 40.4906 50.7867 40.7056 50.288 41.1355C49.7893 41.5654 49.5399 42.1845 49.5399 42.9927C49.5399 43.7494 49.8581 44.3083 50.4943 44.6694C51.1306 45.0133 51.9474 45.2971 52.9448 45.5206C54.4237 45.8301 55.6017 46.1483 56.4787 46.475C57.3557 46.8017 58.0866 47.3262 58.6713 48.0485C59.2559 48.7707 59.5483 49.7595 59.5483 51.0149C59.5483 52.8033 58.9206 54.136 57.6653 55.0131C56.4271 55.8901 54.5441 56.3286 52.0162 56.3286Z" fill="#2F72BC"/>
</svg>
