<svg width="225" height="82" viewBox="0 0 225 82" fill="none" xmlns="http://www.w3.org/2000/svg">
<rect x="0.0913086" y="0.608337" width="224.091" height="80.6084" rx="40.3042" fill="#42B883"/>
<path d="M105.132 30.8486L110.702 46.6405H110.922L116.491 30.8486H118.873L111.984 49.6083H109.639L102.751 30.8486H105.132ZM130.368 43.8558V35.5385H132.53V49.6083H130.368V47.2267H130.222C129.892 47.9412 129.379 48.5488 128.683 49.0496C127.987 49.5442 127.107 49.7915 126.045 49.7915C125.165 49.7915 124.384 49.5992 123.7 49.2145C123.016 48.8236 122.479 48.2374 122.088 47.4557C121.697 46.668 121.501 45.6756 121.501 44.4787V35.5385H123.663V44.3322C123.663 45.3581 123.95 46.1764 124.524 46.787C125.104 47.3977 125.843 47.703 126.741 47.703C127.278 47.703 127.825 47.5656 128.381 47.2908C128.942 47.016 129.413 46.5947 129.791 46.0268C130.176 45.4588 130.368 44.7352 130.368 43.8558ZM142.389 49.9015C141.033 49.9015 139.864 49.6022 138.88 49.0038C137.903 48.3992 137.149 47.5565 136.618 46.4756C136.093 45.3886 135.83 44.1245 135.83 42.6833C135.83 41.2422 136.093 39.972 136.618 38.8728C137.149 37.7675 137.888 36.9064 138.835 36.2896C139.787 35.6668 140.899 35.3553 142.169 35.3553C142.902 35.3553 143.625 35.4774 144.34 35.7217C145.054 35.966 145.705 36.3629 146.291 36.9125C146.877 37.456 147.344 38.1766 147.692 39.0743C148.04 39.972 148.214 41.0773 148.214 42.3902V43.3062H137.369V41.4376H146.016C146.016 40.6437 145.857 39.9353 145.54 39.3124C145.228 38.6896 144.782 38.198 144.202 37.8377C143.628 37.4774 142.95 37.2972 142.169 37.2972C141.308 37.2972 140.563 37.511 139.934 37.9384C139.311 38.3598 138.831 38.9094 138.496 39.5873C138.16 40.2651 137.992 40.9918 137.992 41.7673V43.0131C137.992 44.0757 138.175 44.9764 138.541 45.7153C138.914 46.4481 139.43 47.0069 140.089 47.3916C140.749 47.7702 141.515 47.9595 142.389 47.9595C142.957 47.9595 143.47 47.8801 143.928 47.7214C144.392 47.5565 144.792 47.3122 145.127 46.9886C145.463 46.6588 145.723 46.2497 145.906 45.7611L147.995 46.3474C147.775 47.0557 147.405 47.6786 146.886 48.216C146.367 48.7473 145.726 49.1625 144.963 49.4618C144.199 49.7549 143.341 49.9015 142.389 49.9015Z" fill="white"/>
<g clip-path="url(#clip0_3_84)">
<path d="M59.4373 56.8135L41.0257 25.1686H54.6547L58.973 32.5797L59.4373 33.3765L59.9016 32.5797L64.2199 25.1686H77.8489L59.4373 56.8135Z" fill="#42B883" stroke="black" stroke-width="1.07478"/>
<path d="M59.4373 43.5131L48.7641 25.1686H54.6547L58.973 32.5797L59.4373 33.3765L59.9016 32.5797L64.2199 25.1686H70.1105L59.4373 43.5131Z" fill="#35495E" stroke="black" stroke-width="1.07478"/>
</g>
<defs>
<clipPath id="clip0_3_84">
<rect width="38.692" height="38.692" fill="white" transform="translate(40.0913 21.6083)"/>
</clipPath>
</defs>
</svg>
